<?xml version="1.0" encoding="UTF-8" standalone="no"?>
<!DOCTYPE svg PUBLIC "-//W3C//DTD SVG 1.1//EN" "http://www.w3.org/Graphics/SVG/1.1/DTD/svg11.dtd">
<svg width="100%" height="100%" viewBox="0 0 661 111" version="1.1" xmlns="http://www.w3.org/2000/svg" xmlns:xlink="http://www.w3.org/1999/xlink" xml:space="preserve" xmlns:serif="http://www.serif.com/" style="fill-rule:evenodd;clip-rule:evenodd;stroke-linecap:round;stroke-linejoin:round;stroke-miterlimit:1.5;">
    <defs>
    	<style>
    		path{
    			stroke: #000;
    			stroke-width: 2.08px;
  				fill: none;
    		}
    		.main{
    			stroke-dasharray: 2100;
    			animation: 2.5s dash;
    			animation-delay: 0s;
    			animation-iteration-count: 1;
    			animation-timing-function: cubic-bezier(0.5, 0.6, 0.6, 0.4);
    		}
    		@keyframes dash{
    			from{
					stroke-dashoffset: 2100;
    			}
    			to{
					stroke-dashoffset: 0;
    			}
    		}
    	</style>
    </defs>
    <g transform="matrix(1,0,0,1,-1534.03,-66.4028)">
        <path class="main" d="M1535.07,175.013C1542,177.322 1554.43,169.6 1560.19,166.998C1582.51,156.914 1603.47,144.408 1623.7,130.643C1627.37,128.146 1642.4,114.694 1646.28,114.112C1647.72,113.896 1644.86,116.663 1643.95,117.797C1642.18,120.017 1640.25,122.1 1638.27,124.131C1630.5,132.069 1621.49,139.261 1615.01,148.355C1613.5,150.479 1609.57,156.254 1613.54,158.196C1618.9,160.814 1628.21,156.275 1633.01,154.224C1645.46,148.892 1657.19,141.474 1668.29,133.756C1672.11,131.099 1678.66,123.758 1683.35,122.878C1684.34,122.694 1682.25,124.556 1681.63,125.347C1679.91,127.568 1678.13,129.752 1676.45,132.003C1672.29,137.547 1663.48,146.305 1661.78,153.114C1661.45,154.408 1663.37,150.972 1664.1,149.858C1665.85,147.2 1665.95,146.883 1667.86,144.097C1670.31,140.509 1685.7,121.446 1690.79,123.88C1693.61,125.227 1686.1,130.115 1685.57,130.428C1684.1,131.305 1672.36,134.988 1672.15,136.189C1671.5,140.02 1682.91,146.512 1685.32,147.89C1702.56,157.763 1722.12,151.554 1737.85,141.485C1742.37,138.592 1753.51,131.813 1752.84,125.025C1752.42,120.737 1744.86,124.889 1743.39,125.741C1736.68,129.645 1717.94,146.546 1728.83,154.76C1742.19,164.843 1768.99,144.942 1779,136.798C1780.68,135.425 1793.97,124.138 1794.78,124.56C1795.91,125.15 1792.91,130.352 1792.74,130.715C1790.05,136.315 1787.3,141.893 1784.4,147.389C1784.19,147.792 1779.98,156.73 1780.29,156.693C1782.72,156.4 1787.02,149.953 1788.59,148.391C1794.14,142.875 1800.29,137.573 1806.91,133.363C1807.86,132.755 1814.46,128.331 1815.53,130.929C1817.61,135.951 1799.8,153.821 1808.3,158.017C1817.8,162.697 1847.37,143.553 1854.61,137.907C1856.65,136.314 1867.28,128.679 1865.73,124.954C1864.69,122.432 1856.85,131.571 1856.43,132.146C1852.8,137.085 1845.97,147.977 1850.99,154.009C1858.84,163.432 1881.14,147.673 1887.13,143.131C1905.45,129.244 1920.4,111.081 1934.04,92.75C1938.38,86.927 1942.56,81.003 1946.53,74.93C1947.73,73.092 1948.94,71.258 1950.14,69.42C1950.55,68.805 1951.77,66.971 1951.33,67.559C1938.49,84.669 1927.27,103.58 1915.44,121.411C1913.7,124.029 1900.82,141.023 1901.23,143.775C1901.24,143.856 1904.36,141.088 1908.06,137.764C1910.82,135.293 1929.24,120.075 1931.47,129.82C1933.76,139.869 1904.16,155.524 1897.8,150.431C1896.6,149.477 1900.86,150.377 1902.38,150.574C1905.33,150.959 1908.23,151.521 1911.21,151.755C1918.5,152.326 1925.84,151.918 1932.93,150.073C1944.56,147.048 1954.68,140.499 1963.81,132.897C1967.77,129.608 1973.4,121.961 1978.45,120.338C1978.7,120.258 1975.72,126.991 1975.51,127.423C1973.88,130.849 1963.67,149.36 1970.93,151.54C1978.63,153.848 1992.27,135.408 1996.81,130.644C1997.86,129.551 2002.81,122.557 2004.51,122.557C2005.42,122.557 2003.92,124.291 2003.51,125.098C2002.66,126.725 2001.79,128.343 2001,130C1999.05,134.09 1993.5,147.102 1998.88,150.574C2006.64,155.582 2022.08,145.58 2027.61,140.948C2029.77,139.134 2031.81,137.149 2033.66,135.009C2034.84,133.633 2037.35,128.959 2037.06,130.75C2036.56,133.734 2034.51,137.082 2033.33,139.839C2032.71,141.298 2032.07,142.75 2031.44,144.205C2021.36,167.321 2039.54,111.745 2051.55,125.956C2054.49,129.438 2049.02,133.414 2046.5,134.83C2041.27,137.773 2036.04,138.149 2030.29,139.016C2028.6,139.272 2037.85,144.51 2038.77,144.992C2041.61,146.477 2044.48,148.135 2047.54,149.143C2071.17,156.93 2101.44,127.342 2113.56,110.927C2117.12,106.105 2127.61,92.071 2123.11,85.322C2119.74,80.276 2110.38,90.591 2108.48,92.571C2097.32,104.21 2088.1,118.315 2081,132.754C2078.95,136.911 2073.94,145.643 2077.96,150.18C2084.78,157.877 2117.31,145.399 2122.33,140.591C2124.17,138.829 2129.73,133.211 2127.45,130.071C2125.52,127.425 2121.18,135.015 2120.72,135.975C2115.9,145.952 2117.85,158.834 2131.63,153.83C2155.23,145.261 2164.85,127.402 2179.63,108.627C2183.81,103.319 2187.93,95.607 2193.26,91.344C2193.34,91.281 2193.21,91.547 2193.15,91.631C2191.61,93.886 2189.66,95.939 2187.89,98C2185.24,101.088 2183.53,103.046 2180.92,106.266C2173.86,114.962 2174.66,114.61 2168.6,124.023C2166.59,127.143 2164.32,130.77 2162.66,134.114C2161.28,136.881 2160.22,139.466 2159.58,142.487C2155.45,162.108 2177.96,154.569 2188.06,150.932C2188.06,150.932 2188.62,150.265 2188.49,150.353C2187.86,150.76 2187.19,151.09 2186.52,151.419C2184.68,152.322 2182.8,153.154 2180.85,153.783C2175.81,155.405 2162.81,158.664 2160.19,151.651C2159.19,148.979 2160.07,145.976 2160.82,143.368C2162.83,136.474 2166.51,124.854 2173.97,122.088C2179.61,120.002 2185.65,121.864 2191,118.549"/>
        <path class="dot" d="M1659.53,96.438C1660.09,95.878 1656.24,99.196 1657.49,99.767C1658.79,100.361 1659.82,97.546 1659.61,96.654"/>
    </g>
</svg>
