<?xml version="1.0" encoding="UTF-8" standalone="no"?><!DOCTYPE svg PUBLIC "-//W3C//DTD SVG 1.1//EN" "http://www.w3.org/Graphics/SVG/1.1/DTD/svg11.dtd"><svg width="100%" height="100%" viewBox="0 0 80 86" version="1.1" xmlns="http://www.w3.org/2000/svg" xmlns:xlink="http://www.w3.org/1999/xlink" xml:space="preserve" xmlns:serif="http://www.serif.com/" style="fill-rule:evenodd;clip-rule:evenodd;stroke-linecap:round;stroke-linejoin:round;stroke-miterlimit:1.5;"><g><path d="M0.539,50.262c-0.191,0 0.377,-0.061 0.568,-0.07c0.481,-0.022 0.962,-0.045 1.445,-0.06c1.64,-0.049 3.282,-0.07 4.922,-0.129c4.524,-0.162 11.1,0.722 14.31,-3.179c4.879,-5.93 7.756,-14.021 10.483,-21.086c1.068,-2.767 2.016,-5.595 3.189,-8.32c0.689,-1.602 1.594,-3.323 1.923,-2.711c0.485,0.901 0.105,3.09 0.05,3.946c-0.277,4.266 -0.823,8.524 -1.346,12.765c-1.466,11.911 -2.776,23.841 -2.969,35.854c-0.063,3.943 0.011,7.906 0.329,11.838c0.115,1.426 0.05,4.001 1.146,5.142c0.672,0.7 1.536,-0.228 1.943,-0.727c1.656,-2.034 2.747,-4.603 3.757,-6.996c2.029,-4.808 3.493,-9.823 4.912,-14.837c1.077,-3.803 1.845,-8.077 4.026,-11.45c2.392,-3.7 8.154,-3.128 11.998,-3.288c9.417,-0.393 8.597,-0.397 17.995,-1.113" style="fill:none;stroke:#000;stroke-width:1px;"/><path d="M35.506,36.341c0,0.933 1.555,-2.393 2.252,-3.089c1.625,-1.625 4.297,-3.104 6.018,-0.777c3.64,4.919 0.461,16.541 -2.511,21.245c-1.092,1.728 -3.832,5.562 -6.357,5.291c-1.514,-0.162 0.029,-2.919 0.358,-3.458c1.656,-2.703 7.51,-8.341 10.414,-4.016c1.619,2.413 1.115,6.063 0.628,8.73c-1.402,7.672 -5.309,15.252 -9.049,22.052" style="fill:none;stroke:#000;stroke-width:1px;"/><path d="M39.89,1.484c0,-1.272 -2.192,0.001 -0.917,0.548c0.916,0.392 1.5,-1.667 0.22,-1.525" style="fill:none;stroke:#000;stroke-width:1px;"/></g></svg>