<?xml version="1.0" encoding="UTF-8" standalone="no"?><!DOCTYPE svg PUBLIC "-//W3C//DTD SVG 1.1//EN" "http://www.w3.org/Graphics/SVG/1.1/DTD/svg11.dtd"><svg width="100%" height="100%" viewBox="0 0 70 75" version="1.1" xmlns="http://www.w3.org/2000/svg" xmlns:xlink="http://www.w3.org/1999/xlink" xml:space="preserve" xmlns:serif="http://www.serif.com/" style="fill-rule:evenodd;clip-rule:evenodd;stroke-linecap:round;stroke-linejoin:round;stroke-miterlimit:1.5;"><g><path d="M0.55,44.031C0.384,44.031 0.88,43.978 1.047,43.97C1.468,43.951 1.889,43.931 2.311,43.918C3.745,43.875 5.181,43.856 6.615,43.805C10.571,43.663 16.321,44.436 19.129,41.025C23.395,35.84 25.911,28.764 28.296,22.586C29.23,20.167 30.058,17.693 31.084,15.31C31.687,13.91 32.478,12.405 32.766,12.94C33.19,13.728 32.858,15.642 32.809,16.391C32.567,20.122 32.09,23.845 31.633,27.553C30.351,37.969 29.205,48.402 29.036,58.906C28.981,62.354 29.046,65.819 29.324,69.258C29.425,70.505 29.368,72.757 30.326,73.755C30.914,74.367 31.67,73.555 32.025,73.119C33.474,71.34 34.428,69.093 35.31,67.001C37.085,62.797 38.365,58.411 39.606,54.026C40.548,50.701 41.219,46.963 43.127,44.014C45.219,40.779 50.257,41.278 53.618,41.138C61.853,40.795 61.136,40.792 69.354,40.166" style="fill:none;stroke:#fff;stroke-width:1.03px;"/><path d="M31.128,31.858C31.128,32.674 32.488,29.766 33.097,29.157C34.518,27.736 36.855,26.443 38.36,28.477C41.543,32.779 38.763,42.942 36.164,47.055C35.209,48.567 32.813,51.919 30.605,51.682C29.281,51.54 30.63,49.129 30.918,48.659C32.366,46.294 37.485,41.365 40.024,45.147C41.441,47.256 40.999,50.448 40.573,52.78C39.348,59.49 35.932,66.118 32.661,72.064" style="fill:none;stroke:#fff;stroke-width:1.03px;"/><path d="M34.962,1.377C34.962,0.265 33.045,1.378 34.16,1.856C34.96,2.199 35.472,0.398 34.352,0.523" style="fill:none;stroke:#fff;stroke-width:1.03px;"/></g></svg>