<?xml version="1.0" standalone="no"?>
<!DOCTYPE svg PUBLIC "-//W3C//DTD SVG 1.1//EN" "http://www.w3.org/Graphics/SVG/1.1/DTD/svg11.dtd" >
<svg xmlns="http://www.w3.org/2000/svg" xmlns:xlink="http://www.w3.org/1999/xlink" version="1.1">
<metadata></metadata>
<defs>
<font id="inter_uiblack" horiz-adv-x="2240" >
<font-face units-per-em="2816" ascent="2252" descent="-564" />
<missing-glyph horiz-adv-x="560" />
<glyph horiz-adv-x="0" />
<glyph horiz-adv-x="938" />
<glyph horiz-adv-x="0" />
<glyph unicode="&#x9;" horiz-adv-x="848" />
<glyph unicode=" "  horiz-adv-x="560" />
<glyph unicode="&#x09;" horiz-adv-x="560" />
<glyph unicode="&#xa0;" horiz-adv-x="560" />
<glyph unicode="!" horiz-adv-x="1000" d="M780 2048l-52 -1408h-456l-52 1408h560zM500 -24q-114 0 -195 74t-81 178t81 178t195 74t195 -74t81 -178t-81 -178t-195 -74z" />
<glyph unicode="&#x22;" horiz-adv-x="1060" d="M460 2048v-828h-360v828h360zM980 2048v-828h-360v828h360z" />
<glyph unicode="#" horiz-adv-x="1956" d="M396 0l106 564h-330l-8 272h388l57 304h-325l-8 268h383l109 580h296l-109 -580h192l109 580h300l-109 -580h333l12 -268h-395l-57 -304h328l8 -272h-386l-106 -564h-300l106 564h-192l-106 -564h-296zM848 836h192l57 304h-192z" />
<glyph unicode="$" horiz-adv-x="1876" d="M880 -256v234q-365 18 -582 197.5t-218 544.5h528q6 -123 76.5 -195t195.5 -88v376l-164 35q-272 59 -428.5 197.5t-155.5 378.5q-1 184 93.5 325.5t263.5 226t391 98.5v230h128v-229q234 -8 404 -93t262.5 -232.5t93.5 -341.5h-532q-7 90 -62.5 145t-165.5 65v-354 l148 -32q339 -73 489 -233.5t151 -394.5q-1 -294 -210 -456t-578 -171v-233h-128zM1008 434q108 10 163.5 56t56.5 114q-1 60 -50.5 102t-169.5 76v-348zM880 1296v318q-87 -13 -127 -53.5t-41 -96.5q-6 -111 168 -168z" />
<glyph unicode="%" horiz-adv-x="2508" d="M1308 384v108q1 130 57.5 240t164 177t262.5 67q159 0 268 -66t165 -176t55 -242v-108q1 -130 -55.5 -240t-166 -177t-266.5 -67t-264.5 67t-163 177t-56.5 240zM236 1556v108q1 132 58 242t165 176t261 66q159 0 268 -66t165 -176t55 -242v-108q1 -132 -55.5 -241 t-166 -174t-266.5 -65t-264.5 66t-163 175t-56.5 239zM348 0l1408 2048h284l-1408 -2048h-284zM1656 492v-108q2 -57 29.5 -112.5t106.5 -55.5q83 0 110.5 54t25.5 114v108q2 60 -24 116t-112 56q-79 0 -106.5 -56t-29.5 -116zM588 1664v-108q2 -60 29 -114t103 -54 q83 0 110.5 54t25.5 114v108q2 60 -24 116t-112 56q-79 0 -104.5 -57.5t-27.5 -114.5z" />
<glyph unicode="&#x26;" horiz-adv-x="1964" d="M444 1056l2 1q-66 92 -116 207t-50 248q0 156 75 285t210 206t315 77q172 0 296.5 -71t192 -189t67.5 -260q0 -143 -70.5 -267t-201.5 -217l-98 -70l262 -288q43 75 67.5 163.5t24.5 186.5h436q0 -200 -47 -384t-154 -326l325 -358h-552l-107 113l-1 -1 q-123 -79 -257 -111.5t-263 -32.5q-220 0 -379 78t-244 209t-85 289q0 173 96.5 288.5t255.5 223.5zM1015 436l-302 320q-39 -31 -66 -71.5t-27 -100.5q0 -87 59.5 -135.5t160.5 -48.5q87 0 175 36zM823 1291l85 53q70 44 95 91.5t25 84.5q0 49 -36 87t-112 37 q-70 -1 -111 -38t-41 -102q0 -51 25.5 -102.5t69.5 -110.5z" />
<glyph unicode="'" horiz-adv-x="564" d="M460 2048v-828h-360v828h360z" />
<glyph unicode="(" horiz-adv-x="1240" d="M240 792q0 369 100.5 679t319.5 577h540q-110 -132 -197 -336.5t-137 -444t-50 -475.5t50 -475.5t137 -444t197 -336.5h-540q-219 267 -319.5 577t-100.5 679z" />
<glyph unicode=")" horiz-adv-x="1240" d="M1000 792q0 -369 -100.5 -679t-319.5 -577h-540q110 132 197 336.5t137 444t50 475.5t-50 475.5t-137 444t-197 336.5h540q219 -267 319.5 -577t100.5 -679z" />
<glyph unicode="*" horiz-adv-x="1712" d="M696 896l32 352l-292 -204l-160 280l320 148l-320 148l160 280l292 -204l-32 352h320l-32 -352l292 204l160 -280l-320 -148l320 -148l-160 -280l-292 204l32 -352h-320z" />
<glyph unicode="+" horiz-adv-x="1952" d="M752 92v516h-516v448h516v516h448v-516h516v-448h-516v-516h-448z" />
<glyph unicode="," horiz-adv-x="896" d="M676 280l-8 -112q-10 -144 -47.5 -276t-79 -234t-65.5 -158h-340q16 56 45.5 161.5t54 238t24.5 268.5v112h416z" />
<glyph unicode="-" horiz-adv-x="1404" d="M1260 1044v-372h-1116v372h1116z" />
<glyph unicode="." horiz-adv-x="884" d="M440 -32q-115 0 -198 81.5t-82 198.5q-1 114 82 195t198 81q113 0 198 -81t86 -195q-1 -117 -86 -198.5t-198 -81.5z" />
<glyph unicode="/" horiz-adv-x="1160" d="M1144 2144l-660 -2452h-468l660 2452h468z" />
<glyph unicode="0" horiz-adv-x="2056" d="M1028 -56q-279 1 -482 129t-313 369t-109 578q1 338 110.5 574t312 359t481.5 123q278 0 481.5 -123.5t313.5 -359.5t109 -573q-1 -339 -110.5 -580t-312.5 -368.5t-481 -127.5zM1028 396q144 0 236.5 150.5t91.5 473.5q-1 316 -92.5 462t-235.5 146t-235 -146t-93 -462 q-1 -323 91.5 -473.5t236.5 -150.5z" />
<glyph unicode="1" horiz-adv-x="1392" d="M1108 2048v-2048h-552v1404h-20q-41 -56 -141.5 -104t-266.5 -48v436q114 0 210.5 49.5t155 131.5t58.5 179h556z" />
<glyph unicode="2" horiz-adv-x="1860" d="M176 0v400l764 632q109 91 176 173t68 191q-1 118 -77 185t-191 67q-116 0 -192.5 -68.5t-75.5 -199.5h-528q-1 215 99 371.5t279.5 240.5t417.5 84q248 0 424.5 -88.5t271 -240.5t96.5 -343q1 -142 -54 -265t-171 -248t-299 -275l-196 -160v-12h760v-444h-1572z" />
<glyph unicode="3" horiz-adv-x="1900" d="M936 -28q-243 0 -430 83.5t-294 230.5t-108 338h560q2 -89 79 -146.5t197 -57.5q116 0 189 60.5t71 155.5q2 93 -83.5 152.5t-220.5 59.5h-208v384h208q125 0 203.5 59.5t76.5 152.5q2 89 -64.5 146.5t-171.5 57.5q-115 0 -188.5 -59.5t-75.5 -152.5h-532 q1 188 103.5 332t281.5 226t411 82q227 0 401.5 -77t273 -211.5t97.5 -307.5q2 -172 -117.5 -282t-302.5 -130v-16q248 -27 373 -151.5t123 -312.5q1 -181 -107.5 -319.5t-301 -217.5t-443.5 -79z" />
<glyph unicode="4" horiz-adv-x="1976" d="M116 320v432l824 1296h704v-1296h236v-432h-236v-320h-532v320h-996zM1124 752v720h-16l-444 -704v-16h460z" />
<glyph unicode="5" horiz-adv-x="1884" d="M956 -28q-236 0 -418.5 83.5t-287 230.5t-106.5 338h540q3 -106 82.5 -169t189.5 -63q128 0 208.5 81t79.5 215q1 134 -79.5 215t-208.5 81q-88 0 -162.5 -42.5t-109.5 -117.5l-488 96l80 1128h1376v-444h-920l-40 -452h12q48 93 166 154.5t274 61.5q182 0 326 -85 t227.5 -234.5t82.5 -344.5q1 -214 -101.5 -379.5t-287.5 -259t-435 -93.5z" />
<glyph unicode="6" horiz-adv-x="1928" d="M992 -28q-179 0 -339 56.5t-283.5 178.5t-194 318t-71.5 475q1 336 112 579t311.5 374t468.5 131q226 0 398 -87.5t274.5 -234.5t119.5 -326h-548q-19 93 -87.5 134.5t-156.5 41.5q-175 0 -256.5 -153t-83.5 -407h12q59 141 204 220.5t320 79.5q185 0 325 -84t218 -230 t77 -334q1 -220 -103.5 -385t-289.5 -256t-427 -91zM988 392q125 0 205.5 82.5t78.5 209.5q2 127 -78.5 209.5t-205.5 82.5q-121 0 -201.5 -82.5t-82.5 -209.5q2 -127 82.5 -209.5t201.5 -82.5z" />
<glyph unicode="7" horiz-adv-x="1720" d="M228 0l804 1592v12h-944v444h1520v-444l-808 -1604h-572z" />
<glyph unicode="8" horiz-adv-x="1944" d="M972 -28q-248 0 -442.5 77t-306 209t-111.5 298q0 126 63.5 231.5t171.5 175t241 89.5v16q-175 30 -287.5 155.5t-112.5 296.5q0 161 102 286.5t279 197.5t403 72t403 -72.5t279 -198t102 -285.5q0 -172 -114 -297t-286 -155v-16q131 -20 239.5 -89.5t172.5 -175 t64 -231.5q0 -166 -111.5 -298t-306 -209t-442.5 -77zM972 356q118 0 195 70.5t77 177.5q0 106 -77 175t-195 69t-195 -68.5t-77 -175.5q0 -106 77 -177t195 -71zM972 1232q104 0 172 63.5t68 160.5q0 95 -68 157.5t-172 62.5t-172 -62t-68 -158t68 -160t172 -64z" />
<glyph unicode="9" horiz-adv-x="1928" d="M936 2084q179 0 339 -56.5t283.5 -178.5t194 -318t71.5 -475q-1 -336 -112 -579t-311 -374t-469 -131q-227 0 -399 87t-274 234t-119 327h548q20 -93 88 -134.5t156 -41.5q176 0 257.5 152.5t82.5 407.5h-12q-58 -141 -203 -220.5t-321 -79.5q-185 0 -325 83.5t-218 230 t-77 334.5q-1 220 103 384.5t289 256t428 91.5zM940 1664q-124 0 -204.5 -83t-79.5 -209q-1 -126 79.5 -209t204.5 -83q122 0 202.5 83t81.5 209q-1 126 -81.5 209t-202.5 83z" />
<glyph unicode=":" horiz-adv-x="880" d="M456 -32q-115 0 -198 81.5t-82 198.5q-1 114 82 195t198 81q113 0 198 -81t86 -195q-1 -117 -86 -198.5t-198 -81.5zM456 1000q-115 0 -198 81.5t-82 198.5q-1 114 82 195t198 81q113 0 198 -81t86 -195q-1 -117 -86 -198.5t-198 -81.5z" />
<glyph unicode=";" horiz-adv-x="888" d="M676 280l-8 -112q-10 -144 -47.5 -276t-79 -234t-65.5 -158h-340q16 56 45.5 161.5t54 238t24.5 268.5v112h416zM476 1052q-115 0 -198 81.5t-82 198.5q-1 114 82 195t198 81q113 0 198 -81t86 -195q-1 -117 -86 -198.5t-198 -81.5z" />
<glyph unicode="&#x3c;" horiz-adv-x="1952" d="M232 592v480l1488 596v-504l-932 -322v-20l932 -322v-504z" />
<glyph unicode="=" horiz-adv-x="1952" d="M236 252v448h1480v-448h-1480zM236 964v448h1480v-448h-1480z" />
<glyph unicode="&#x3e;" horiz-adv-x="1952" d="M1720 592l-1488 -596v504l932 322v20l-932 322v504l1488 -596v-480z" />
<glyph unicode="?" horiz-adv-x="1688" d="M544 640q-24 234 34 364t194 216q106 67 165 124t59 136q0 75 -52.5 121.5t-127.5 46.5q-81 0 -140.5 -55t-59.5 -141h-512q2 220 100 357.5t259.5 202t356.5 64.5q214 0 382 -62.5t265 -188t97 -313.5q0 -160 -77 -275.5t-219 -204.5q-94 -58 -149 -104.5t-79 -111 t-24 -176.5h-472zM788 -24q-112 0 -193 74t-83 178q2 104 83 178t193 74q116 0 197 -74t79 -178q2 -104 -79 -178t-197 -74z" />
<glyph unicode="@" horiz-adv-x="3080" d="M1628 2084q413 0 717 -149t470 -435t165 -696q2 -420 -176.5 -633t-507.5 -243q-141 -13 -205 12t-85 73.5t-31 103.5l-3 15h-12q-23 -62 -107 -108t-198 -69t-227 -15q-110 8 -220 53t-201.5 135t-146.5 231.5t-56 340.5q1 200 55.5 340t141 231t187 140t192.5 65 q121 22 235 5.5t194 -55t99 -82.5h16v112h380v-1024q2 -60 20.5 -80t43.5 -20q71 0 126.5 123.5t53.5 384.5q1 224 -57.5 374.5t-156.5 242t-218.5 138t-247.5 62t-240 15.5q-259 0 -445.5 -77.5t-306.5 -212t-177.5 -307t-58.5 -363.5q2 -450 255 -685t725 -235 q179 0 339 29t257 71l128 -360q-94 -63 -298 -109.5t-458 -46.5q-437 0 -749 156.5t-479 450t-168 705.5q1 410 168.5 725t488 493t779.5 178zM1580 1052q-163 0 -250.5 -86t-89.5 -254q1 -92 33.5 -174.5t108 -134t206.5 -51.5q173 0 237 95t59 269q-1 88 -22.5 164.5 t-86 124t-195.5 47.5z" />
<glyph unicode="A" d="M664 0h-600l676 2048h760l676 -2048h-600l-118 392h-676zM908 808h424l-204 676h-16z" />
<glyph unicode="B" horiz-adv-x="1880" d="M132 0v2048h888q351 0 533.5 -139t182.5 -373q0 -169 -109 -291t-287 -157v-20q131 -5 239.5 -66.5t172.5 -169.5t64 -252q0 -169 -87.5 -299.5t-248.5 -205.5t-384 -75h-964zM688 444h260q280 0 280 208q0 108 -72.5 166t-199.5 58h-268v-432zM688 1220h228 q110 0 179 51t69 145q0 95 -68 145.5t-172 50.5h-236v-392z" />
<glyph unicode="C" horiz-adv-x="2164" d="M2044 1280h-564q-12 140 -101.5 226t-250.5 86q-210 0 -321 -150.5t-111 -417.5q0 -282 112.5 -425t315.5 -143q153 0 244 76.5t112 207.5l564 -4q-10 -130 -73 -264.5t-178.5 -248t-285.5 -182.5t-395 -69q-282 0 -505.5 121t-353 356t-129.5 575q0 342 132 576.5 t356 355t500 120.5q258 0 460.5 -93t326 -271t145.5 -432z" />
<glyph unicode="D" horiz-adv-x="2064" d="M920 0h-788v2048h780q316 0 546.5 -122.5t356 -352t125.5 -549.5t-125 -549.5t-354 -352t-541 -122.5zM688 472h212q152 0 259.5 49t164 169t56.5 334t-57.5 334t-168 169t-270.5 49h-196v-1104z" />
<glyph unicode="E" horiz-adv-x="1752" d="M132 0v2048h1476v-448h-920v-352h844v-448h-844v-352h916v-448h-1472z" />
<glyph unicode="F" horiz-adv-x="1644" d="M132 0v2048h1440v-448h-884v-352h796v-448h-796v-800h-556z" />
<glyph unicode="G" horiz-adv-x="2176" d="M124 1020q0 338 132 574t356 359t500 123q242 0 441 -90.5t324 -249t147 -364.5h-568q-33 105 -121.5 162.5t-222.5 57.5q-207 0 -311.5 -151.5t-104.5 -412.5q0 -275 108 -423.5t320 -148.5q96 0 180 34t136 99t52 159h-352v396h908v-284q0 -280 -120.5 -478.5 t-330 -304t-477.5 -105.5q-298 0 -522 127t-349 362t-125 559z" />
<glyph unicode="H" horiz-adv-x="2112" d="M132 0v2048h556v-800h736v800h556v-2048h-556v800h-736v-800h-556z" />
<glyph unicode="I" horiz-adv-x="820" d="M688 2048v-2048h-556v2048h556z" />
<glyph unicode="J" horiz-adv-x="1664" d="M976 644v1404h548v-1404q-1 -200 -100.5 -351.5t-274 -236t-401.5 -84.5q-197 0 -360 68.5t-260 216t-96 383.5h556q9 -236 196 -236q189 0 192 240z" />
<glyph unicode="K" horiz-adv-x="2012" d="M132 0v2048h556v-828h28l616 828h648l-692 -912l708 -1136h-664l-460 768l-184 -240v-528h-556z" />
<glyph unicode="L" horiz-adv-x="1608" d="M132 0v2048h556v-1600h828v-448h-1384z" />
<glyph unicode="M" horiz-adv-x="2624" d="M132 2048h692l476 -1160h24l476 1160h692v-2048h-544v1184h-16l-456 -1168h-328l-456 1176h-16v-1192h-544v2048z" />
<glyph unicode="N" horiz-adv-x="2036" d="M1904 2048v-2048h-464l-740 1076h-12v-1076h-556v2048h472l728 -1072h16v1072h556z" />
<glyph unicode="O" d="M2116 1024q0 -342 -133 -576.5t-359 -355t-504 -120.5q-280 0 -505.5 121.5t-358 356t-132.5 574.5q0 342 132.5 576.5t358 355t505.5 120.5q278 0 504 -120.5t359 -355t133 -576.5zM1544 1024q0 276 -108.5 422t-315.5 146t-315.5 -146t-108.5 -422t108.5 -422 t315.5 -146t315.5 146t108.5 422z" />
<glyph unicode="P" horiz-adv-x="1848" d="M132 0v2048h884q227 0 398.5 -89.5t267 -252.5t94.5 -382q1 -220 -97 -380.5t-274 -248t-409 -87.5h-308v-608h-556zM688 1040h196q146 0 229.5 75t82.5 209q1 129 -82.5 204.5t-229.5 75.5h-196v-564z" />
<glyph unicode="Q" horiz-adv-x="2244" d="M2116 1024q0 -265 -82.5 -465.5t-224.5 -334.5l311 -376h-492l-154 179q-165 -55 -354 -55q-280 0 -505.5 121.5t-358 356t-132.5 574.5q0 342 132.5 576.5t358 355t505.5 120.5q278 0 504 -120.5t359 -355t133 -576.5zM924 760h432l101 -127q87 144 87 391 q0 276 -108.5 422t-315.5 146t-315.5 -146t-108.5 -422t108.5 -422t315.5 -146q17 0 33 1z" />
<glyph unicode="R" horiz-adv-x="1908" d="M132 0v2048h872q378 0 587 -177t209 -495q0 -201 -95.5 -344t-248.5 -224l416 -808h-604l-364 724h-216v-724h-556zM688 1116h268q123 0 191.5 67t68.5 181q0 111 -68.5 175.5t-191.5 64.5h-268v-488z" />
<glyph unicode="S" horiz-adv-x="1876" d="M1236 1408q-8 100 -74.5 156t-201.5 56q-129 0 -188 -44t-60 -112q-4 -73 63.5 -119t212.5 -77l168 -36q339 -73 489 -233.5t151 -394.5q-1 -303 -222 -465.5t-610 -162.5q-267 0 -465.5 79t-308 243.5t-110.5 421.5h528q7 -141 97.5 -214.5t250.5 -73.5q134 0 202.5 48 t69.5 124q-1 70 -69 116.5t-239 83.5l-204 44q-272 59 -428.5 197.5t-155.5 378.5q-1 195 104.5 341.5t293 228.5t430.5 82q248 0 429 -83t279.5 -233.5t99.5 -351.5h-532z" />
<glyph unicode="T" horiz-adv-x="1932" d="M76 1600v448h1780v-448h-616v-1600h-548v1600h-616z" />
<glyph unicode="U" horiz-adv-x="2032" d="M1348 2048h552v-1352q0 -234 -109.5 -394.5t-308 -243t-466.5 -82.5q-270 0 -468.5 82.5t-307 243t-108.5 394.5v1352h556v-1328q0 -114 87.5 -185t240.5 -71q156 0 244 71t88 185v1328z" />
<glyph unicode="V" d="M692 2048l420 -1444h16l420 1444h628l-676 -2048h-760l-676 2048h628z" />
<glyph unicode="W" horiz-adv-x="3080" d="M652 0l-604 2048h620l280 -1260h16l332 1260h488l332 -1264h16l280 1264h620l-604 -2048h-532l-348 1144h-16l-348 -1144h-532z" />
<glyph unicode="X" horiz-adv-x="2148" d="M728 2048l336 -596h16l340 596h620l-612 -1024l636 -1024h-636l-348 608h-16l-348 -608h-632l628 1024l-608 1024h624z" />
<glyph unicode="Y" horiz-adv-x="2152" d="M48 2048h620l400 -832h16l400 832h620l-752 -1404v-644h-552v644z" />
<glyph unicode="Z" horiz-adv-x="1956" d="M140 0v308l968 1292h-964v448h1672v-308l-968 -1292h964v-448h-1672z" />
<glyph unicode="[" horiz-adv-x="1240" d="M276 -464v2512h920v-400h-384v-1712h384v-400h-920z" />
<glyph unicode="\" horiz-adv-x="1328" d="M116 2048h468l624 -2356h-468z" />
<glyph unicode="]" horiz-adv-x="1240" d="M964 2048v-2512h-920v400h384v1712h-384v400h920z" />
<glyph unicode="^" horiz-adv-x="1408" d="M948 1004l-242 607l-246 -607h-376l428 1000h388l432 -1000h-384z" />
<glyph unicode="_" horiz-adv-x="1388" d="M1388 0v-392h-1388v392h1388z" />
<glyph unicode="`" horiz-adv-x="1244" d="M756 2112l284 -440h-416l-408 440h540z" />
<glyph unicode="a" horiz-adv-x="1664" d="M568 -24q-220 0 -360 109.5t-140 338.5q0 168 75 271.5t202.5 154t286.5 62.5q194 14 276 42.5t80 97.5q-1 62 -45.5 93t-118.5 31q-79 0 -128.5 -34.5t-59.5 -105.5h-508q9 140 88.5 258.5t234.5 190t393 71.5q211 0 367.5 -67t242.5 -181t86 -256v-1052h-516v216h-12 q-70 -129 -182 -184.5t-262 -55.5zM748 324q94 0 169 57.5t75 162.5v128q-82 -34 -220 -56q-96 -15 -140 -58t-44 -102q0 -64 45 -98t115 -34z" />
<glyph unicode="b" horiz-adv-x="1824" d="M140 0v2048h552v-780h8q45 117 153 202.5t279 85.5q152 0 289.5 -81t224 -255t86.5 -452q0 -266 -82.5 -441t-220 -261t-301.5 -86q-162 0 -271 77.5t-157 194.5h-12v-252h-548zM680 768q0 -168 65 -266t179 -98t177 96.5t63 267.5t-63 267.5t-177 96.5t-179 -96.5 t-65 -267.5z" />
<glyph unicode="c" horiz-adv-x="1708" d="M880 -28q-250 0 -428 99.5t-273 278t-95 414.5t95 414.5t273 278t428 99.5q226 0 391.5 -81.5t256.5 -230t92 -348.5h-512q-11 121 -69.5 184.5t-150.5 63.5q-109 0 -174.5 -93.5t-65.5 -282.5t65.5 -282.5t174.5 -93.5q91 0 151 63.5t69 184.5h512 q-4 -305 -201.5 -486.5t-538.5 -181.5z" />
<glyph unicode="d" horiz-adv-x="1824" d="M1684 0v2048h-552v-780h-8q-45 117 -153 202.5t-279 85.5q-152 0 -289.5 -81t-224 -255t-86.5 -452q0 -266 82.5 -441t220 -261t301.5 -86q162 0 271 77.5t157 194.5h12v-252h548zM1144 768q0 -168 -65 -266t-179 -98t-177 96.5t-63 267.5t63 267.5t177 96.5t179 -96.5 t65 -267.5z" />
<glyph unicode="e" horiz-adv-x="1712" d="M876 -28q-369 0 -580.5 209.5t-211.5 582.5q0 238 96 416t271 277t413 99q232 0 403.5 -95t266 -271.5t94.5 -421.5v-128h-1000v-24q0 -111 68.5 -183.5t191.5 -72.5q85 0 148.5 35.5t87.5 100.5h504q-39 -240 -235.5 -382t-516.5 -142zM628 944h492q-2 99 -71.5 161.5 t-172.5 62.5q-101 0 -173.5 -62t-74.5 -162z" />
<glyph unicode="f" horiz-adv-x="1156" d="M1084 1536v-400h-280v-1136h-552v1136h-196v400h196v44q0 285 150 424.5t402 139.5q105 0 204.5 -16t147.5 -28l-80 -396q-30 9 -70 14.5t-70 5.5q-78 0 -105 -33t-27 -87v-68h280z" />
<glyph unicode="g" horiz-adv-x="1828" d="M880 -592q-231 0 -395.5 64.5t-255 176t-101.5 251.5h532q12 -61 76.5 -90.5t159.5 -29.5q107 0 177.5 50t70.5 174v260h-16q-45 -117 -160.5 -180.5t-271.5 -63.5q-164 0 -301.5 76t-220 241t-82.5 431q0 278 86.5 452t224 255t289.5 81q171 0 279 -85.5t153 -202.5h12 v268h552v-1532q0 -187 -100.5 -320.5t-282.5 -204.5t-425 -71zM900 412q114 0 179 94t65 262q0 171 -65 267.5t-179 96.5t-177 -96.5t-63 -267.5t63 -263.5t177 -92.5z" />
<glyph unicode="h" horiz-adv-x="1820" d="M692 864v-864h-552v2048h532v-804h16q52 147 173 229.5t291 82.5q163 0 283.5 -74t187 -204t65.5 -298v-980h-552v864q1 114 -56.5 179t-163.5 65q-101 0 -162 -65t-62 -179z" />
<glyph unicode="i" horiz-adv-x="832" d="M140 0v1536h552v-1536h-552zM416 1672q-108 0 -190 72t-82 180t82 180t190 72t190 -72t82 -180t-82 -180t-190 -72z" />
<glyph unicode="j" horiz-adv-x="832" d="M140 1536h552v-1580q0 -202 -85 -319.5t-239.5 -165t-363.5 -39.5q-21 1 -44 1t-56 3v408q35 -4 64 -4q99 0 135.5 30.5t36.5 97.5v1568zM416 1672q-108 0 -190 72t-82 180t82 180t190 72t190 -72t82 -180t-82 -180t-190 -72z" />
<glyph unicode="k" horiz-adv-x="1708" d="M140 0v2048h552v-1028h20l372 516h620l-522 -673l538 -863h-632l-313 541l-83 -105v-436h-552z" />
<glyph unicode="l" horiz-adv-x="832" d="M692 2048v-2048h-552v2048h552z" />
<glyph unicode="m" horiz-adv-x="2648" d="M140 0v1536h524v-292h16q48 144 164 228t276 84q162 0 279 -85.5t141 -226.5h16q39 141 166 226.5t298 85.5q221 0 358.5 -142t137.5 -378v-1036h-552v896q0 101 -51 158.5t-137 57.5q-85 0 -134.5 -57.5t-49.5 -158.5v-896h-528v896q0 101 -51 158.5t-137 57.5 q-85 0 -134.5 -57.5t-49.5 -158.5v-896h-552z" />
<glyph unicode="n" horiz-adv-x="1820" d="M692 864v-864h-552v1536h524v-292h16q50 146 176.5 229t295.5 83q163 0 283.5 -74.5t187 -204.5t65.5 -297v-980h-552v864q1 114 -57.5 179t-162.5 65q-103 0 -163 -65t-61 -179z" />
<glyph unicode="o" horiz-adv-x="1760" d="M880 -28q-250 0 -428 99.5t-273 278t-95 414.5t95 414.5t273 278t428 99.5t428 -99.5t273 -278t95 -414.5t-95 -414.5t-273 -278t-428 -99.5zM884 380q105 0 166.5 103.5t61.5 284.5t-61.5 284.5t-166.5 103.5q-111 0 -173.5 -103.5t-62.5 -284.5t62.5 -284.5 t173.5 -103.5z" />
<glyph unicode="p" horiz-adv-x="1824" d="M1128 -20q-163 0 -272 77t-156 195h-8v-828h-552v2112h548v-268h12q46 117 154 202.5t278 85.5q152 0 290 -81t224.5 -255t85.5 -452q1 -266 -81.5 -441t-220.5 -261t-302 -86zM924 404q114 0 177.5 96t62.5 268q1 172 -62.5 268t-177.5 96t-178.5 -97t-65.5 -267 q1 -169 65.5 -266.5t178.5 -97.5z" />
<glyph unicode="q" horiz-adv-x="1824" d="M696 -20q163 0 272 77t156 195h8v-828h552v2112h-548v-268h-12q-46 117 -154 202.5t-278 85.5q-152 0 -290 -81t-224.5 -255t-85.5 -452q-1 -266 81.5 -441t220.5 -261t302 -86zM900 404q-114 0 -177.5 96t-62.5 268q-1 172 62.5 268t177.5 96t178.5 -97t65.5 -267 q-1 -169 -65.5 -266.5t-178.5 -97.5z" />
<glyph unicode="r" horiz-adv-x="1292" d="M140 0v1536h536v-292h16q43 162 134 237t214 75q60 0 117 -15t103 -41l-160 -452q-34 16 -71 28t-81 12q-103 0 -179 -78.5t-77 -209.5v-800h-552z" />
<glyph unicode="s" horiz-adv-x="1656" d="M1544 1036h-508q-6 71 -66 111.5t-142 40.5q-71 0 -122 -26t-50 -74q-1 -34 29.5 -63t118.5 -45l312 -56q465 -84 468 -416q-1 -164 -97.5 -284.5t-263 -186t-379.5 -65.5q-352 0 -550.5 144t-221.5 380h548q11 -73 72.5 -112.5t155.5 -39.5q76 0 125.5 26t50.5 74 q-3 80 -176 112l-272 48q-471 83 -468 452q-1 240 189 370t519 130q333 0 525.5 -138t202.5 -382z" />
<glyph unicode="t" horiz-adv-x="1140" d="M1056 1536v-400h-264v-636q-6 -96 104 -96q25 0 58.5 6t49.5 10l80 -388q-37 -11 -105.5 -27t-162.5 -21q-286 -16 -432.5 103.5t-143.5 360.5v688h-196v400h196v368h552v-368h264z" />
<glyph unicode="u" horiz-adv-x="1828" d="M1136 672v864h552v-1536h-524v292h-16q-50 -147 -175 -229.5t-297 -82.5q-162 0 -282 74t-187 204t-67 298v980h552v-864q1 -114 58.5 -179t161.5 -65q103 0 164 65t60 179z" />
<glyph unicode="v" horiz-adv-x="1704" d="M1688 1536l-516 -1536h-640l-516 1536h580l248 -1016h16l248 1016h580z" />
<glyph unicode="w" horiz-adv-x="2464" d="M412 0l-384 1536h552l176 -936h12l196 936h536l204 -928h12l168 928h552l-384 -1536h-596l-216 824h-16l-216 -824h-596z" />
<glyph unicode="x" horiz-adv-x="1680" d="M616 1536l224 -476l236 476h548l-412 -768l432 -768h-544l-260 488l-252 -488h-552l436 768l-408 768h552z" />
<glyph unicode="y" horiz-adv-x="1704" d="M456 -600q-110 0 -186.5 20.5t-125.5 39.5l120 412q102 -36 174 -31.5t106 63.5l12 28l-540 1604h576l248 -1064h16l252 1064h580l-560 -1664q-43 -126 -129 -233.5t-220.5 -173t-322.5 -65.5z" />
<glyph unicode="z" horiz-adv-x="1668" d="M156 0v304l672 804v8h-648v420h1300v-336l-612 -772v-8h636v-420h-1348z" />
<glyph unicode="{" horiz-adv-x="1240" d="M1196 -464q-154 0 -299 10.5t-259.5 61.5t-182 169.5t-67.5 334.5v156q0 147 -68 215.5t-244 68.5v480q176 0 244 68.5t68 215.5v156q0 216 67.5 334.5t182 169.5t259.5 61.5t299 10.5v-400q-120 0 -178 -27t-76 -82.5t-18 -138.5v-220q0 -74 -33 -145t-121 -128.5 t-254 -90.5v-48q166 -33 254 -90.5t121 -128.5t33 -145v-220q0 -84 18 -139t76 -82t178 -27v-400z" />
<glyph unicode="|" horiz-adv-x="1140" d="M840 2708v-3368h-540v3368h540z" />
<glyph unicode="}" horiz-adv-x="1240" d="M44 2048q154 0 299 -10.5t259.5 -61.5t182 -169.5t67.5 -334.5v-156q0 -147 68 -215.5t244 -68.5v-480q-176 0 -244 -68.5t-68 -215.5v-156q0 -216 -67.5 -334.5t-182 -169.5t-259.5 -61.5t-299 -10.5v400q120 0 178 27t76 82.5t18 138.5v220q0 74 33 145t121 128.5 t254 90.5v48q-166 33 -254 90.5t-121 128.5t-33 145v220q0 84 -18 139t-76 82t-178 27v400z" />
<glyph unicode="~" horiz-adv-x="1952" d="M204 516q-13 308 103 490t353 182q89 0 175.5 -35t196.5 -133q47 -41 83.5 -68.5t88.5 -27.5q61 0 104.5 51.5t39.5 172.5h400q14 -307 -106.5 -489.5t-349.5 -182.5q-97 0 -185.5 39t-190.5 129q-55 49 -86.5 72.5t-81.5 23.5q-63 0 -105 -51.5t-39 -172.5h-400z" />
<glyph unicode="&#xa1;" horiz-adv-x="1004" d="M804 -516l-52 1408h-456l-52 -1408h560zM524 1556q-114 0 -195 -74t-81 -178t81 -178t195 -74t195 74t81 178t-81 178t-195 74z" />
<glyph unicode="&#xa2;" horiz-adv-x="1656" d="M768 -256v234q-324 33 -504 246t-180 540t180 540t504 246v230h128v-224q221 -3 383 -85.5t251 -229.5t90 -345h-512q-11 118 -67.5 181.5t-144.5 66.5v-752q88 3 145.5 66.5t66.5 181.5h512q-4 -302 -197 -482.5t-527 -185.5v-228h-128zM768 429v678q-56 -40 -88 -124.5 t-32 -214.5t32 -214.5t88 -124.5z" />
<glyph unicode="&#xa3;" horiz-adv-x="1968" d="M1784 0h-1576v448h164q50 24 64 60t12 108l-8 212h-236v416h221l-9 252q-10 270 172 425t492 155q332 0 504.5 -150.5t191.5 -429.5l-520 -24q-7 108 -54 140t-118 32q-115 0 -112 -148l10 -252h430v-416h-415l7 -172q4 -128 -61 -208h841v-448z" />
<glyph unicode="&#xa4;" horiz-adv-x="2232" d="M260 836q-1 139 39 264t111 229l-206 203l212 216l210 -204q105 72 230.5 112t263.5 40q137 0 262.5 -41t230.5 -115l211 208l216 -216l-214 -208q70 -103 109.5 -226.5t40.5 -261.5q-1 -132 -37 -251t-101 -220l202 -193l-216 -216l-191 188q-107 -81 -238 -126.5 t-275 -45.5t-275.5 44.5t-239.5 123.5l-189 -184l-212 216l194 189q-66 101 -102.5 221.5t-35.5 253.5zM540 836q-1 -164 75.5 -294.5t208 -206t296.5 -75.5q159 0 290.5 75.5t210 206t79.5 294.5q-1 166 -79.5 296t-210 205t-290.5 75q-165 0 -296.5 -75t-208 -205 t-75.5 -296z" />
<glyph unicode="&#xa5;" horiz-adv-x="1656" d="M1468 1080v-292h-376v-104h376v-292h-376v-392h-548v392h-428v292h428v104h-428v292h343l-419 968h556l233 -627l231 627h556l-422 -968h274z" />
<glyph unicode="&#xa6;" horiz-adv-x="1120" d="M316 584h488v-968h-488v968zM804 2048v-964h-488v964h488z" />
<glyph unicode="&#xa7;" horiz-adv-x="1748" d="M1492 1524h-472q-1 42 -44.5 71t-123.5 29q-28 0 -65 -4t-64 -23t-27 -65q-1 -60 59.5 -98t112.5 -50l380 -144q40 -15 102 -46.5t120.5 -86.5t92 -139t17.5 -204q-13 -90 -60 -136t-98 -64t-74 -24l-8 -4q92 -81 141.5 -179.5t50.5 -224.5q-1 -164 -83 -286.5 t-227.5 -190t-337.5 -67.5q-202 0 -354.5 71.5t-237 200t-84.5 300.5h472q-1 -60 52.5 -92.5t159.5 -23.5q53 3 106 21.5t54 66.5q-1 54 -60.5 92t-103.5 56l-380 140q-42 15 -104.5 46.5t-121 87t-92 140.5t-18.5 206q12 92 57 137t96.5 62t82.5 25q-85 81 -137 180 t-51 228q0 156 80 279t223 194t329 71q190 0 333.5 -72t224.5 -197t82 -283zM1144 728q11 27 -19 61t-125 67l-296 100q-46 15 -67.5 8t-32.5 -28q-13 -24 20 -61t124 -67l308 -104q64 -22 88 24z" />
<glyph unicode="&#xa8;" horiz-adv-x="1296" d="M332 1692q-102 0 -173 68t-71 164t71 164t173 68q99 0 169.5 -68t70.5 -164t-70.5 -164t-169.5 -68zM968 1692q-102 0 -173 68t-71 164t71 164t173 68q99 0 169.5 -68t70.5 -164t-70.5 -164t-169.5 -68z" />
<glyph unicode="&#xa9;" horiz-adv-x="2504" d="M228 1004q0 218 80.5 404.5t222 327t326.5 218.5t395 78q212 0 397.5 -78t326.5 -218.5t220.5 -327t79.5 -404.5q0 -219 -79.5 -407t-220.5 -328t-326.5 -218.5t-397.5 -78.5q-210 0 -395 78.5t-326.5 218.5t-222 328t-80.5 407zM404 1004q0 -183 67 -339.5t184 -273.5 t270 -182t327 -65q176 0 330 65t270.5 182t182 273.5t65.5 339.5q0 182 -65.5 337.5t-182 272t-270.5 181.5t-330 65q-174 0 -327 -65t-270 -181.5t-184 -272t-67 -337.5zM1492 820h228q1 -216 -132 -324t-356 -108q-227 0 -365 147.5t-139 384.5v164q1 237 139 384.5 t365 147.5q223 0 356 -108t132 -324h-228q1 132 -64.5 190t-195.5 58q-137 0 -206 -97.5t-70 -250.5v-164q1 -153 70 -250.5t206 -97.5q130 0 195.5 56.5t64.5 191.5z" />
<glyph unicode="&#xaa;" horiz-adv-x="1444" d="M907 1063q-44 -46 -116 -78.5t-175 -32.5q-171 0 -263.5 85.5t-92.5 226.5q0 153 121.5 234.5t370.5 81.5h144v72q0 81 -40.5 128.5t-127.5 47.5q-93 0 -144.5 -35t-51.5 -101l-252 16q0 141 123.5 232.5t324.5 91.5q189 0 304.5 -95.5t115.5 -284.5v-432 q0 -54 6.5 -118.5t33.5 -133.5h-256q-15 46 -25 95zM896 1420h-144q-123 0 -181.5 -46t-58.5 -106q0 -54 40.5 -87t127.5 -33q57 0 117 25.5t99 60.5v186z" />
<glyph unicode="&#xab;" horiz-adv-x="1796" d="M1028 136h-308l-388 512v28l388 508h308l-324 -522zM1544 136h-308l-388 512v28l388 508h308l-324 -522z" />
<glyph unicode="&#xac;" horiz-adv-x="1708" d="M1460 1108v-592h-288v356h-916v236h1204z" />
<glyph unicode="&#xad;" horiz-adv-x="1404" d="M1260 1044v-372h-1116v372h1116z" />
<glyph unicode="&#xae;" horiz-adv-x="2504" d="M228 1004q0 218 80.5 404.5t222 327t326.5 218.5t395 78q212 0 397.5 -78t326.5 -218.5t220.5 -327t79.5 -404.5q0 -219 -79.5 -407t-220.5 -328t-326.5 -218.5t-397.5 -78.5q-210 0 -395 78.5t-326.5 218.5t-222 328t-80.5 407zM404 1004q0 -183 67 -339.5t184 -273.5 t270 -182t327 -65q176 0 330 65t270.5 182t182 273.5t65.5 339.5q0 182 -65.5 337.5t-182 272t-270.5 181.5t-330 65q-174 0 -327 -65t-270 -181.5t-184 -272t-67 -337.5zM1272 900h-224v-464h-220v1168h404q217 0 345 -95.5t127 -272.5q1 -143 -147 -224q79 -47 111 -126 t32 -178v-76q2 -116 24 -176v-20h-224q-14 33 -16.5 99.5t-3.5 96.5v76q1 96 -46 144t-162 48zM1048 1420v-336h172q106 0 187.5 39.5t80.5 120.5q1 99 -56.5 137.5t-199.5 38.5h-184z" />
<glyph unicode="&#xaf;" horiz-adv-x="1812" d="M1408 2012v-252h-1004v252h1004z" />
<glyph unicode="&#xb0;" horiz-adv-x="1064" d="M536 1288q-115 0 -214.5 53.5t-160 144t-61.5 202.5q1 110 61.5 205t160 153t214.5 58q114 0 209 -58t151 -153t56 -205q0 -112 -56 -202.5t-151 -144t-209 -53.5zM536 1552q58 0 101.5 36t42.5 96q1 63 -42.5 103.5t-101.5 40.5q-59 0 -107 -40.5t-49 -103.5 q1 -57 49 -94.5t107 -37.5z" />
<glyph unicode="&#xb1;" horiz-adv-x="1952" d="M232 912v400h520v304h448v-304h520v-400h-520v-304h-448v304h-520zM232 64v416h1488v-416h-1488z" />
<glyph unicode="&#xb2;" horiz-adv-x="1240" d="M116 1024v268l512 360q68 48 113.5 92t46.5 104q-1 66 -53 103t-123 37q-79 0 -130 -38t-50 -110h-352q-1 201 146.5 314.5t385.5 113.5q245 0 386 -118t142 -298q-1 -135 -85 -243.5t-275 -216.5l-120 -68v-8h504v-292h-1048z" />
<glyph unicode="&#xb3;" horiz-adv-x="1272" d="M628 1008q-163 0 -289 52t-197 143t-70 209h372q-1 -45 50.5 -76.5t133.5 -31.5q74 0 124.5 32t51.5 80q-1 45 -58 76.5t-146 31.5h-140v248h140q80 0 133.5 31.5t54.5 76.5q-1 45 -46.5 76.5t-113.5 31.5q-79 0 -128 -34t-48 -82h-352q-1 116 66.5 205.5t187 140 t274.5 50.5q149 0 265 -46.5t183 -128t68 -185.5q-1 -105 -82.5 -169.5t-197.5 -70.5v-12q158 -12 244.5 -83.5t87.5 -188.5q-1 -110 -74 -195t-201 -133t-293 -48z" />
<glyph unicode="&#xb4;" horiz-adv-x="1268" d="M204 1672l296 440h564l-420 -440h-440z" />
<glyph unicode="&#xb5;" horiz-adv-x="1960" d="M140 -544v2080h552v-864q1 -107 81.5 -175.5t206.5 -68.5q128 0 208.5 68.5t79.5 175.5v864h552v-1536h-524v212h-12q-35 -85 -116 -134.5t-188 -49.5q-106 0 -187.5 49.5t-116.5 134.5h-12v-756h-524z" />
<glyph unicode="&#xb6;" horiz-adv-x="1744" d="M1204 0v1648h-248v-888h-120q-230 0 -388 83.5t-239 229t-81 331.5q0 184 81 329.5t239 230t388 84.5h768v-2048h-400z" />
<glyph unicode="&#xb7;" horiz-adv-x="872" d="M452 624q-115 0 -198 81.5t-82 198.5q-1 114 82 195t198 81q113 0 198 -81t86 -195q-1 -117 -86 -198.5t-198 -81.5z" />
<glyph unicode="&#xb8;" horiz-adv-x="1256" d="M532 8h196l-16 -92q119 -18 185 -84t67 -164q2 -162 -158.5 -255t-441.5 -93v212q300 0 308 124q8 114 -188 144z" />
<glyph unicode="&#xb9;" horiz-adv-x="972" d="M736 2252v-1228h-332v808h-12q-28 -36 -98 -64t-174 -28v292q113 0 198 59t86 161h332z" />
<glyph unicode="&#xba;" horiz-adv-x="1432" d="M216 1436v104q0 216 136 354t364 138q231 0 365.5 -138t134.5 -354v-104q0 -213 -132.5 -350.5t-363.5 -137.5q-234 0 -369 137.5t-135 350.5zM468 1540v-104q0 -123 63 -203.5t189 -80.5q123 0 183.5 80.5t60.5 203.5v104q0 120 -61 204t-187 84q-123 0 -185.5 -84 t-62.5 -204z" />
<glyph unicode="&#xbb;" horiz-adv-x="1796" d="M412 136l314 522l-314 522h304l392 -512v-20l-392 -512h-304zM896 136l314 522l-314 522h304l392 -512v-20l-392 -512h-304z" />
<glyph unicode="&#xbc;" horiz-adv-x="2516" d="M292 0l1408 2048h284l-1408 -2048h-284zM304 960v704h-16q-27 -16 -95.5 -38t-136.5 -22v272q85 0 160.5 29.5t130 70t77.5 72.5h212v-1088h-332zM1384 168v268l404 652h456v-652h124v-268h-124v-168h-332v168h-528zM1924 424v368h-16l-208 -352v-16h224z" />
<glyph unicode="&#xbd;" horiz-adv-x="2624" d="M292 0l1408 2048h284l-1408 -2048h-284zM304 960v704h-16q-27 -16 -95.5 -38t-136.5 -22v272q85 0 160.5 29.5t130 70t77.5 72.5h212v-1088h-332zM2476 260v-260h-912v224l336 272q9 7 18 14.5t18 14.5q80 64 130.5 113t49.5 102q1 39 -29.5 67.5t-86.5 28.5t-89.5 -33.5 t-34.5 -90.5h-336q1 179 120.5 283.5t323.5 104.5q205 0 337 -98.5t131 -253.5q1 -118 -78.5 -200.5t-217.5 -191.5q-9 -8 -19.5 -16t-20.5 -16l-80 -64h440z" />
<glyph unicode="&#xbe;" horiz-adv-x="2816" d="M592 0l1408 2048h284l-1408 -2048h-284zM1684 168v268l404 652h456v-652h124v-268h-124v-168h-332v168h-528zM2224 424v368h-16l-208 -352v-16h224zM528 944q-217 0 -344 96t-128 260h340q1 -40 43 -64t113 -24q65 0 103 26t37 70q1 48 -41 76t-115 28h-132v208h132 q62 0 97.5 26t34.5 70q1 39 -32.5 65.5t-99.5 26.5q-55 0 -87 -18t-33 -42h-336q1 146 122 231t326 85q220 0 348.5 -86t127.5 -230q1 -94 -64 -154t-176 -70v-16q122 -15 193.5 -80.5t70.5 -163.5q1 -148 -134 -234t-366 -86z" />
<glyph unicode="&#xbf;" horiz-adv-x="1692" d="M1136 864q24 -234 -34 -364t-194 -216q-106 -67 -165 -124t-59 -136q0 -75 52.5 -121.5t127.5 -46.5q81 0 140.5 55t59.5 141h512q-2 -220 -100 -357.5t-259.5 -202t-356.5 -64.5q-214 0 -382 62.5t-265 188t-97 313.5q0 160 77 275.5t219 204.5q94 58 149 104.5t79 111 t24 176.5h472zM892 1528q112 0 193 -74t83 -178q-2 -104 -83 -178t-193 -74q-116 0 -197 74t-79 178q-2 104 79 178t197 74z" />
<glyph unicode="&#xc0;" d="M664 0h-600l676 2048h760l676 -2048h-600l-118 392h-676zM908 808h424l-204 676h-16zM1076 2552l284 -440h-416l-408 440h540z" />
<glyph unicode="&#xc1;" d="M664 0h-600l676 2048h760l676 -2048h-600l-118 392h-676zM908 808h424l-204 676h-16zM876 2112l296 440h564l-420 -440h-440z" />
<glyph unicode="&#xc2;" d="M664 0h-600l676 2048h760l676 -2048h-600l-118 392h-676zM908 808h424l-204 676h-16zM940 2112l204 160l196 -160h452v12l-480 396h-344l-484 -396v-12h456z" />
<glyph unicode="&#xc3;" d="M664 0h-600l676 2048h760l676 -2048h-600l-118 392h-676zM908 808h424l-204 676h-16zM852 2120l-284 16q0 96 43.5 185t119.5 146t173 57q75 0 141.5 -27t131 -54t131.5 -27q40 0 74.5 24.5t33.5 87.5l284 -16q1 -96 -42 -185t-119 -146t-175 -57q-87 0 -150.5 28 t-122.5 56t-131 28q-44 0 -75.5 -26.5t-32.5 -89.5z" />
<glyph unicode="&#xc4;" d="M664 0h-600l676 2048h760l676 -2048h-600l-118 392h-676zM908 808h424l-204 676h-16zM804 2104q-102 0 -173 68t-71 164t71 164t173 68q99 0 169.5 -68t70.5 -164t-70.5 -164t-169.5 -68zM1440 2104q-102 0 -173 68t-71 164t71 164t173 68q99 0 169.5 -68t70.5 -164 t-70.5 -164t-169.5 -68z" />
<glyph unicode="&#xc5;" d="M664 0h-600l676 2048h760l676 -2048h-600l-118 392h-676zM908 808h424l-204 676h-16zM812 2336q0 99 85 175.5t223 76.5q135 0 219.5 -76.5t84.5 -175.5q0 -102 -84.5 -173t-219.5 -71q-138 0 -223 71t-85 173zM980 2336q0 -54 37 -91t103 -37q63 0 99.5 37t36.5 91 t-38 89t-98 35q-63 0 -101.5 -35t-38.5 -89z" />
<glyph unicode="&#xc6;" horiz-adv-x="2976" d="M64 0l800 2048h1968v-448h-920v-352h844v-448h-844v-352h916v-448h-1472v392h-537l-143 -392h-612zM970 808h386v676h-140z" />
<glyph unicode="&#xc7;" horiz-adv-x="2164" d="M2044 1280h-564q-12 140 -101.5 226t-250.5 86q-210 0 -321 -150.5t-111 -417.5q0 -282 112.5 -425t315.5 -143q153 0 244 76.5t112 207.5l564 -4q-10 -130 -73 -264.5t-178.5 -248t-285.5 -182.5t-395 -69q-282 0 -505.5 121t-353 356t-129.5 575q0 342 132 576.5 t356 355t500 120.5q258 0 460.5 -93t326 -271t145.5 -432zM1004 16h196l-16 -92q119 -18 185 -84t67 -164q2 -162 -158.5 -255t-441.5 -93v212q300 0 308 124q8 114 -188 144z" />
<glyph unicode="&#xc8;" horiz-adv-x="1752" d="M132 0v2048h1476v-448h-920v-352h844v-448h-844v-352h916v-448h-1472zM832 2552l284 -440h-416l-408 440h540z" />
<glyph unicode="&#xc9;" horiz-adv-x="1752" d="M132 0v2048h1476v-448h-920v-352h844v-448h-844v-352h916v-448h-1472zM632 2112l296 440h564l-420 -440h-440z" />
<glyph unicode="&#xca;" horiz-adv-x="1752" d="M132 0v2048h1476v-448h-920v-352h844v-448h-844v-352h916v-448h-1472zM696 2112l204 160l196 -160h452v12l-480 396h-344l-484 -396v-12h456z" />
<glyph unicode="&#xcb;" horiz-adv-x="1752" d="M132 0v2048h1476v-448h-920v-352h844v-448h-844v-352h916v-448h-1472zM560 2104q-102 0 -173 68t-71 164t71 164t173 68q99 0 169.5 -68t70.5 -164t-70.5 -164t-169.5 -68zM1196 2104q-102 0 -173 68t-71 164t71 164t173 68q99 0 169.5 -68t70.5 -164t-70.5 -164 t-169.5 -68z" />
<glyph unicode="&#xcc;" horiz-adv-x="820" d="M688 2048v-2048h-556v2048h556zM368 2552l284 -440h-416l-408 440h540z" />
<glyph unicode="&#xcd;" horiz-adv-x="820" d="M688 2048v-2048h-556v2048h556zM168 2112l296 440h564l-420 -440h-440z" />
<glyph unicode="&#xce;" horiz-adv-x="820" d="M688 2048v-2048h-556v2048h556zM232 2112l204 160l196 -160h452v12l-480 396h-344l-484 -396v-12h456z" />
<glyph unicode="&#xcf;" horiz-adv-x="820" d="M688 2048v-2048h-556v2048h556zM96 2104q-102 0 -173 68t-71 164t71 164t173 68q99 0 169.5 -68t70.5 -164t-70.5 -164t-169.5 -68zM732 2104q-102 0 -173 68t-71 164t71 164t173 68q99 0 169.5 -68t70.5 -164t-70.5 -164t-169.5 -68z" />
<glyph unicode="&#xd0;" horiz-adv-x="2064" d="M-132 948v296h1076v-296h-1076zM920 0h-788v2048h780q316 0 546.5 -122.5t356 -352t125.5 -549.5t-125 -549.5t-354 -352t-541 -122.5zM688 472h212q152 0 259.5 49t164 169t56.5 334t-57.5 334t-168 169t-270.5 49h-196v-1104z" />
<glyph unicode="&#xd1;" horiz-adv-x="2036" d="M1904 2048v-2048h-464l-740 1076h-12v-1076h-556v2048h472l728 -1072h16v1072h556zM740 2128l-284 16q0 96 43.5 185t119.5 146t173 57q75 0 141.5 -27t131 -54t131.5 -27q40 0 74.5 24.5t33.5 87.5l284 -16q1 -96 -42 -185t-119 -146t-175 -57q-87 0 -150.5 28 t-122.5 56t-131 28q-44 0 -75.5 -26.5t-32.5 -89.5z" />
<glyph unicode="&#xd2;" d="M2116 1024q0 -342 -133 -576.5t-359 -355t-504 -120.5q-280 0 -505.5 121.5t-358 356t-132.5 574.5q0 342 132.5 576.5t358 355t505.5 120.5q278 0 504 -120.5t359 -355t133 -576.5zM1544 1024q0 276 -108.5 422t-315.5 146t-315.5 -146t-108.5 -422t108.5 -422 t315.5 -146t315.5 146t108.5 422zM1076 2552l284 -440h-416l-408 440h540z" />
<glyph unicode="&#xd3;" d="M2116 1024q0 -342 -133 -576.5t-359 -355t-504 -120.5q-280 0 -505.5 121.5t-358 356t-132.5 574.5q0 342 132.5 576.5t358 355t505.5 120.5q278 0 504 -120.5t359 -355t133 -576.5zM1544 1024q0 276 -108.5 422t-315.5 146t-315.5 -146t-108.5 -422t108.5 -422 t315.5 -146t315.5 146t108.5 422zM876 2112l296 440h564l-420 -440h-440z" />
<glyph unicode="&#xd4;" d="M2116 1024q0 -342 -133 -576.5t-359 -355t-504 -120.5q-280 0 -505.5 121.5t-358 356t-132.5 574.5q0 342 132.5 576.5t358 355t505.5 120.5q278 0 504 -120.5t359 -355t133 -576.5zM1544 1024q0 276 -108.5 422t-315.5 146t-315.5 -146t-108.5 -422t108.5 -422 t315.5 -146t315.5 146t108.5 422zM940 2112l204 160l196 -160h452v12l-480 396h-344l-484 -396v-12h456z" />
<glyph unicode="&#xd5;" d="M2116 1024q0 -342 -133 -576.5t-359 -355t-504 -120.5q-280 0 -505.5 121.5t-358 356t-132.5 574.5q0 342 132.5 576.5t358 355t505.5 120.5q278 0 504 -120.5t359 -355t133 -576.5zM1544 1024q0 276 -108.5 422t-315.5 146t-315.5 -146t-108.5 -422t108.5 -422 t315.5 -146t315.5 146t108.5 422zM852 2120l-284 16q0 96 43.5 185t119.5 146t173 57q75 0 141.5 -27t131 -54t131.5 -27q40 0 74.5 24.5t33.5 87.5l284 -16q1 -96 -42 -185t-119 -146t-175 -57q-87 0 -150.5 28t-122.5 56t-131 28q-44 0 -75.5 -26.5t-32.5 -89.5z" />
<glyph unicode="&#xd6;" d="M2116 1024q0 -342 -133 -576.5t-359 -355t-504 -120.5q-280 0 -505.5 121.5t-358 356t-132.5 574.5q0 342 132.5 576.5t358 355t505.5 120.5q278 0 504 -120.5t359 -355t133 -576.5zM1544 1024q0 276 -108.5 422t-315.5 146t-315.5 -146t-108.5 -422t108.5 -422 t315.5 -146t315.5 146t108.5 422zM804 2104q-102 0 -173 68t-71 164t71 164t173 68q99 0 169.5 -68t70.5 -164t-70.5 -164t-169.5 -68zM1440 2104q-102 0 -173 68t-71 164t71 164t173 68q99 0 169.5 -68t70.5 -164t-70.5 -164t-169.5 -68z" />
<glyph unicode="&#xd7;" horiz-adv-x="1952" d="M1428 44l-452 451l-452 -451l-336 336l451 451l-451 449l336 340l452 -452l452 452l336 -340l-451 -449l451 -451z" />
<glyph unicode="&#xd8;" d="M484 -108l-224 152l146 205q-132 134 -207 328.5t-75 446.5q0 342 132.5 576.5t358 355t505.5 120.5q278 0 499 -117l137 193l224 -152l-144 -203q130 -133 205 -327t75 -446q0 -342 -133 -576.5t-359 -355t-504 -120.5q-277 0 -497 116zM741 722l583 822q-86 48 -204 48 q-207 0 -315.5 -146t-108.5 -422q0 -177 45 -302zM1544 1024q0 175 -44 299l-582 -820q86 -47 202 -47q207 0 315.5 146t108.5 422z" />
<glyph unicode="&#xd9;" horiz-adv-x="2032" d="M1348 2048h552v-1352q0 -234 -109.5 -394.5t-308 -243t-466.5 -82.5q-270 0 -468.5 82.5t-307 243t-108.5 394.5v1352h556v-1328q0 -114 87.5 -185t240.5 -71q156 0 244 71t88 185v1328zM972 2552l284 -440h-416l-408 440h540z" />
<glyph unicode="&#xda;" horiz-adv-x="2032" d="M1348 2048h552v-1352q0 -234 -109.5 -394.5t-308 -243t-466.5 -82.5q-270 0 -468.5 82.5t-307 243t-108.5 394.5v1352h556v-1328q0 -114 87.5 -185t240.5 -71q156 0 244 71t88 185v1328zM772 2112l296 440h564l-420 -440h-440z" />
<glyph unicode="&#xdb;" horiz-adv-x="2032" d="M1348 2048h552v-1352q0 -234 -109.5 -394.5t-308 -243t-466.5 -82.5q-270 0 -468.5 82.5t-307 243t-108.5 394.5v1352h556v-1328q0 -114 87.5 -185t240.5 -71q156 0 244 71t88 185v1328zM836 2112l204 160l196 -160h452v12l-480 396h-344l-484 -396v-12h456z" />
<glyph unicode="&#xdc;" horiz-adv-x="2032" d="M1348 2048h552v-1352q0 -234 -109.5 -394.5t-308 -243t-466.5 -82.5q-270 0 -468.5 82.5t-307 243t-108.5 394.5v1352h556v-1328q0 -114 87.5 -185t240.5 -71q156 0 244 71t88 185v1328zM700 2104q-102 0 -173 68t-71 164t71 164t173 68q99 0 169.5 -68t70.5 -164 t-70.5 -164t-169.5 -68zM1336 2104q-102 0 -173 68t-71 164t71 164t173 68q99 0 169.5 -68t70.5 -164t-70.5 -164t-169.5 -68z" />
<glyph unicode="&#xdd;" horiz-adv-x="2152" d="M48 2048h620l400 -832h16l400 832h620l-752 -1404v-644h-552v644zM832 2112l296 440h564l-420 -440h-440z" />
<glyph unicode="&#xde;" horiz-adv-x="1964" d="M136 2048h556v-344h236q266 0 450 -83t279 -230t95 -339t-95 -338t-279 -228t-450 -82h-236v-404h-556v2048zM692 812h236q110 0 174 36.5t91 91t27 108.5q0 56 -27 112.5t-91 94t-174 37.5h-236v-480z" />
<glyph unicode="&#xdf;" horiz-adv-x="1972" d="M132 0v1496q0 272 210.5 426t569.5 154q218 0 405 -62t301 -188.5t114 -321.5q0 -148 -71.5 -256t-204.5 -140v-24q203 -10 316.5 -156.5t111.5 -363.5q-1 -191 -91 -316t-247.5 -186.5t-361.5 -61.5h-300v432h184q117 0 187.5 53.5t68.5 146.5q-1 95 -78 147.5 t-210 52.5h-144v404h92q80 0 129.5 53t50.5 135q2 92 -59.5 148t-172.5 56q-115 0 -181.5 -63t-66.5 -173v-1392h-552z" />
<glyph unicode="&#xe0;" horiz-adv-x="1664" d="M568 -24q-220 0 -360 109.5t-140 338.5q0 168 75 271.5t202.5 154t286.5 62.5q194 14 276 42.5t80 97.5q-1 62 -45.5 93t-118.5 31q-79 0 -128.5 -34.5t-59.5 -105.5h-508q9 140 88.5 258.5t234.5 190t393 71.5q211 0 367.5 -67t242.5 -181t86 -256v-1052h-516v216h-12 q-70 -129 -182 -184.5t-262 -55.5zM748 324q94 0 169 57.5t75 162.5v128q-82 -34 -220 -56q-96 -15 -140 -58t-44 -102q0 -64 45 -98t115 -34zM796 2140l284 -440h-416l-408 440h540z" />
<glyph unicode="&#xe1;" horiz-adv-x="1664" d="M568 -24q-220 0 -360 109.5t-140 338.5q0 168 75 271.5t202.5 154t286.5 62.5q194 14 276 42.5t80 97.5q-1 62 -45.5 93t-118.5 31q-79 0 -128.5 -34.5t-59.5 -105.5h-508q9 140 88.5 258.5t234.5 190t393 71.5q211 0 367.5 -67t242.5 -181t86 -256v-1052h-516v216h-12 q-70 -129 -182 -184.5t-262 -55.5zM748 324q94 0 169 57.5t75 162.5v128q-82 -34 -220 -56q-96 -15 -140 -58t-44 -102q0 -64 45 -98t115 -34zM596 1700l296 440h564l-420 -440h-440z" />
<glyph unicode="&#xe2;" horiz-adv-x="1664" d="M568 -24q-220 0 -360 109.5t-140 338.5q0 168 75 271.5t202.5 154t286.5 62.5q194 14 276 42.5t80 97.5q-1 62 -45.5 93t-118.5 31q-79 0 -128.5 -34.5t-59.5 -105.5h-508q9 140 88.5 258.5t234.5 190t393 71.5q211 0 367.5 -67t242.5 -181t86 -256v-1052h-516v216h-12 q-70 -129 -182 -184.5t-262 -55.5zM748 324q94 0 169 57.5t75 162.5v128q-82 -34 -220 -56q-96 -15 -140 -58t-44 -102q0 -64 45 -98t115 -34zM660 1700l204 160l196 -160h452v12l-480 396h-344l-484 -396v-12h456z" />
<glyph unicode="&#xe3;" horiz-adv-x="1664" d="M568 -24q-220 0 -360 109.5t-140 338.5q0 168 75 271.5t202.5 154t286.5 62.5q194 14 276 42.5t80 97.5q-1 62 -45.5 93t-118.5 31q-79 0 -128.5 -34.5t-59.5 -105.5h-508q9 140 88.5 258.5t234.5 190t393 71.5q211 0 367.5 -67t242.5 -181t86 -256v-1052h-516v216h-12 q-70 -129 -182 -184.5t-262 -55.5zM748 324q94 0 169 57.5t75 162.5v128q-82 -34 -220 -56q-96 -15 -140 -58t-44 -102q0 -64 45 -98t115 -34zM560 1716l-284 16q0 96 43.5 185t119.5 146t173 57q75 0 141.5 -27t131 -54t131.5 -27q40 0 74.5 24.5t33.5 87.5l284 -16 q1 -96 -42 -185t-119 -146t-175 -57q-87 0 -150.5 28t-122.5 56t-131 28q-44 0 -75.5 -26.5t-32.5 -89.5z" />
<glyph unicode="&#xe4;" horiz-adv-x="1664" d="M568 -24q-220 0 -360 109.5t-140 338.5q0 168 75 271.5t202.5 154t286.5 62.5q194 14 276 42.5t80 97.5q-1 62 -45.5 93t-118.5 31q-79 0 -128.5 -34.5t-59.5 -105.5h-508q9 140 88.5 258.5t234.5 190t393 71.5q211 0 367.5 -67t242.5 -181t86 -256v-1052h-516v216h-12 q-70 -129 -182 -184.5t-262 -55.5zM748 324q94 0 169 57.5t75 162.5v128q-82 -34 -220 -56q-96 -15 -140 -58t-44 -102q0 -64 45 -98t115 -34zM524 1692q-102 0 -173 68t-71 164t71 164t173 68q99 0 169.5 -68t70.5 -164t-70.5 -164t-169.5 -68zM1160 1692q-102 0 -173 68 t-71 164t71 164t173 68q99 0 169.5 -68t70.5 -164t-70.5 -164t-169.5 -68z" />
<glyph unicode="&#xe5;" horiz-adv-x="1664" d="M568 -24q-220 0 -360 109.5t-140 338.5q0 168 75 271.5t202.5 154t286.5 62.5q194 14 276 42.5t80 97.5q-1 62 -45.5 93t-118.5 31q-79 0 -128.5 -34.5t-59.5 -105.5h-508q9 140 88.5 258.5t234.5 190t393 71.5q211 0 367.5 -67t242.5 -181t86 -256v-1052h-516v216h-12 q-70 -129 -182 -184.5t-262 -55.5zM748 324q94 0 169 57.5t75 162.5v128q-82 -34 -220 -56q-96 -15 -140 -58t-44 -102q0 -64 45 -98t115 -34zM532 1924q0 99 85 175.5t223 76.5q135 0 219.5 -76.5t84.5 -175.5q0 -102 -84.5 -173t-219.5 -71q-138 0 -223 71t-85 173z M700 1924q0 -54 37 -91t103 -37q63 0 99.5 37t36.5 91t-38 89t-98 35q-63 0 -101.5 -35t-38.5 -89z" />
<glyph unicode="&#xe6;" horiz-adv-x="2560" d="M1716 -28q-205 0 -344 60t-234 184h-18q-47 -90 -139.5 -142.5t-202 -75t-210.5 -22.5q-219 0 -359.5 110t-140.5 338q0 168 75 271t203 154t286 63q195 15 275.5 43t80.5 97q0 63 -44.5 93.5t-119.5 30.5q-78 0 -128.5 -34t-59.5 -106h-508q10 140 89 258.5t234 190 t393 71.5q142 0 241 -45t155 -125q95 92 210.5 131t253.5 39q232 0 403.5 -95t266 -271.5t94.5 -421.5v-120l-1000 -30v-2q0 -111 68.5 -183.5t191.5 -72.5q85 0 148.5 35.5t87.5 100.5h504q-39 -240 -235.5 -382t-516.5 -142zM748 324q94 0 169 57.5t75 162.5v128 q-82 -34 -220 -56q-96 -15 -140 -58t-44 -102q0 -64 45 -98t115 -34zM1468 920l492 24q-2 99 -70.5 161.5t-169.5 62.5t-174 -64t-78 -168v-16z" />
<glyph unicode="&#xe7;" horiz-adv-x="1708" d="M880 -28q-250 0 -428 99.5t-273 278t-95 414.5t95 414.5t273 278t428 99.5q226 0 391.5 -81.5t256.5 -230t92 -348.5h-512q-11 121 -69.5 184.5t-150.5 63.5q-109 0 -174.5 -93.5t-65.5 -282.5t65.5 -282.5t174.5 -93.5q91 0 151 63.5t69 184.5h512 q-4 -305 -201.5 -486.5t-538.5 -181.5zM788 8h196l-16 -92q119 -18 185 -84t67 -164q2 -162 -158.5 -255t-441.5 -93v212q300 0 308 124q8 114 -188 144z" />
<glyph unicode="&#xe8;" horiz-adv-x="1712" d="M876 -28q-369 0 -580.5 209.5t-211.5 582.5q0 238 96 416t271 277t413 99q232 0 403.5 -95t266 -271.5t94.5 -421.5v-128h-1000v-24q0 -111 68.5 -183.5t191.5 -72.5q85 0 148.5 35.5t87.5 100.5h504q-39 -240 -235.5 -382t-516.5 -142zM628 944h492q-2 99 -71.5 161.5 t-172.5 62.5q-101 0 -173.5 -62t-74.5 -162zM812 2140l284 -440h-416l-408 440h540z" />
<glyph unicode="&#xe9;" horiz-adv-x="1712" d="M876 -28q-369 0 -580.5 209.5t-211.5 582.5q0 238 96 416t271 277t413 99q232 0 403.5 -95t266 -271.5t94.5 -421.5v-128h-1000v-24q0 -111 68.5 -183.5t191.5 -72.5q85 0 148.5 35.5t87.5 100.5h504q-39 -240 -235.5 -382t-516.5 -142zM628 944h492q-2 99 -71.5 161.5 t-172.5 62.5q-101 0 -173.5 -62t-74.5 -162zM612 1700l296 440h564l-420 -440h-440z" />
<glyph unicode="&#xea;" horiz-adv-x="1712" d="M876 -28q-369 0 -580.5 209.5t-211.5 582.5q0 238 96 416t271 277t413 99q232 0 403.5 -95t266 -271.5t94.5 -421.5v-128h-1000v-24q0 -111 68.5 -183.5t191.5 -72.5q85 0 148.5 35.5t87.5 100.5h504q-39 -240 -235.5 -382t-516.5 -142zM628 944h492q-2 99 -71.5 161.5 t-172.5 62.5q-101 0 -173.5 -62t-74.5 -162zM676 1700l204 160l196 -160h452v12l-480 396h-344l-484 -396v-12h456z" />
<glyph unicode="&#xeb;" horiz-adv-x="1712" d="M876 -28q-369 0 -580.5 209.5t-211.5 582.5q0 238 96 416t271 277t413 99q232 0 403.5 -95t266 -271.5t94.5 -421.5v-128h-1000v-24q0 -111 68.5 -183.5t191.5 -72.5q85 0 148.5 35.5t87.5 100.5h504q-39 -240 -235.5 -382t-516.5 -142zM628 944h492q-2 99 -71.5 161.5 t-172.5 62.5q-101 0 -173.5 -62t-74.5 -162zM540 1692q-102 0 -173 68t-71 164t71 164t173 68q99 0 169.5 -68t70.5 -164t-70.5 -164t-169.5 -68zM1176 1692q-102 0 -173 68t-71 164t71 164t173 68q99 0 169.5 -68t70.5 -164t-70.5 -164t-169.5 -68z" />
<glyph unicode="&#xec;" horiz-adv-x="832" d="M140 0v1536h552v-1536h-552zM372 2140l284 -440h-416l-408 440h540z" />
<glyph unicode="&#xed;" horiz-adv-x="832" d="M140 0v1536h552v-1536h-552zM172 1700l296 440h564l-420 -440h-440z" />
<glyph unicode="&#xee;" horiz-adv-x="832" d="M140 0v1536h552v-1536h-552zM236 1700l204 160l196 -160h452v12l-480 396h-344l-484 -396v-12h456z" />
<glyph unicode="&#xef;" horiz-adv-x="832" d="M140 0v1536h552v-1536h-552zM100 1692q-102 0 -173 68t-71 164t71 164t173 68q99 0 169.5 -68t70.5 -164t-70.5 -164t-169.5 -68zM736 1692q-102 0 -173 68t-71 164t71 164t173 68q99 0 169.5 -68t70.5 -164t-70.5 -164t-169.5 -68z" />
<glyph unicode="&#xf0;" horiz-adv-x="1596" d="M1244 1832l-149 -78q178 -193 293.5 -445t115.5 -557q0 -248 -88.5 -423.5t-248 -268t-371.5 -92.5q-214 0 -372 95t-245 261t-87 380q0 202 67.5 346.5t169 234t203.5 127.5q44 16 103 28.5t119 6t106 -46.5h20q-72 98 -147 164l-373 -196l-148 260l235 123 q-37 21 -77 43.5t-86 49.5l244 332q84 -41 168 -93t165 -115l235 124zM824 380q93 0 152.5 72t59.5 264q0 138 -30.5 202.5t-79 83t-102.5 18.5q-58 0 -106 -23t-77 -90t-29 -199t29 -203t77 -98t106 -27z" />
<glyph unicode="&#xf1;" horiz-adv-x="1668" d="M608 1724l-284 16q0 96 43.5 185t119.5 146t173 57q75 0 141.5 -27t131 -54t131.5 -27q40 0 74.5 24.5t33.5 87.5l284 -16q1 -96 -42 -185t-119 -146t-175 -57q-87 0 -150.5 28t-122.5 56t-131 28q-44 0 -75.5 -26.5t-32.5 -89.5zM708 864v-864h-552v1536h524v-292h16 q50 146 176.5 229t295.5 83q163 0 283.5 -74.5t187 -204.5t65.5 -297v-980h-552v864q1 114 -57.5 179t-162.5 65q-103 0 -163 -65t-61 -179z" />
<glyph unicode="&#xf2;" horiz-adv-x="1760" d="M880 -28q-250 0 -428 99.5t-273 278t-95 414.5t95 414.5t273 278t428 99.5t428 -99.5t273 -278t95 -414.5t-95 -414.5t-273 -278t-428 -99.5zM884 380q105 0 166.5 103.5t61.5 284.5t-61.5 284.5t-166.5 103.5q-111 0 -173.5 -103.5t-62.5 -284.5t62.5 -284.5 t173.5 -103.5zM836 2140l284 -440h-416l-408 440h540z" />
<glyph unicode="&#xf3;" horiz-adv-x="1760" d="M880 -28q-250 0 -428 99.5t-273 278t-95 414.5t95 414.5t273 278t428 99.5t428 -99.5t273 -278t95 -414.5t-95 -414.5t-273 -278t-428 -99.5zM884 380q105 0 166.5 103.5t61.5 284.5t-61.5 284.5t-166.5 103.5q-111 0 -173.5 -103.5t-62.5 -284.5t62.5 -284.5 t173.5 -103.5zM636 1700l296 440h564l-420 -440h-440z" />
<glyph unicode="&#xf4;" horiz-adv-x="1760" d="M880 -28q-250 0 -428 99.5t-273 278t-95 414.5t95 414.5t273 278t428 99.5t428 -99.5t273 -278t95 -414.5t-95 -414.5t-273 -278t-428 -99.5zM884 380q105 0 166.5 103.5t61.5 284.5t-61.5 284.5t-166.5 103.5q-111 0 -173.5 -103.5t-62.5 -284.5t62.5 -284.5 t173.5 -103.5zM700 1700l204 160l196 -160h452v12l-480 396h-344l-484 -396v-12h456z" />
<glyph unicode="&#xf5;" horiz-adv-x="1644" d="M596 1724l-284 16q0 96 43.5 185t119.5 146t173 57q75 0 141.5 -27t131 -54t131.5 -27q40 0 74.5 24.5t33.5 87.5l284 -16q1 -96 -42 -185t-119 -146t-175 -57q-87 0 -150.5 28t-122.5 56t-131 28q-44 0 -75.5 -26.5t-32.5 -89.5zM888 -28q-250 0 -428 99.5t-273 278 t-95 414.5t95 414.5t273 278t428 99.5t428 -99.5t273 -278t95 -414.5t-95 -414.5t-273 -278t-428 -99.5zM892 380q105 0 166.5 103.5t61.5 284.5t-61.5 284.5t-166.5 103.5q-111 0 -173.5 -103.5t-62.5 -284.5t62.5 -284.5t173.5 -103.5z" />
<glyph unicode="&#xf6;" horiz-adv-x="1760" d="M880 -28q-250 0 -428 99.5t-273 278t-95 414.5t95 414.5t273 278t428 99.5t428 -99.5t273 -278t95 -414.5t-95 -414.5t-273 -278t-428 -99.5zM884 380q105 0 166.5 103.5t61.5 284.5t-61.5 284.5t-166.5 103.5q-111 0 -173.5 -103.5t-62.5 -284.5t62.5 -284.5 t173.5 -103.5zM564 1692q-102 0 -173 68t-71 164t71 164t173 68q99 0 169.5 -68t70.5 -164t-70.5 -164t-169.5 -68zM1200 1692q-102 0 -173 68t-71 164t71 164t173 68q99 0 169.5 -68t70.5 -164t-70.5 -164t-169.5 -68z" />
<glyph unicode="&#xf7;" horiz-adv-x="1952" d="M1716 1040v-416h-1480v416h1480zM976 1132q-117 0 -200.5 83.5t-83.5 200.5t83.5 198.5t200.5 81.5t198.5 -81.5t81.5 -198.5t-81.5 -200.5t-198.5 -83.5zM976 -32q-118 0 -201 83t-83 201q0 116 83 198t201 82q116 0 198 -82t82 -198q0 -118 -82 -201t-198 -83z" />
<glyph unicode="&#xf8;" horiz-adv-x="1768" d="M428 -108l-224 152l97 137q-217 215 -217 579q0 236 95 414.5t273 278t428 99.5q192 0 347 -62l101 142l228 -152l-99 -139q219 -215 219 -581q0 -236 -95 -414.5t-273 -278t-428 -99.5q-196 0 -352 64zM652 677l320 452q-40 23 -88 23q-111 0 -173.5 -103.5 t-62.5 -284.5q0 -45 4 -87zM884 376q105 0 166.5 103.5t61.5 284.5q0 45 -4 85l-319 -449q43 -24 95 -24z" />
<glyph unicode="&#xf9;" horiz-adv-x="1828" d="M1136 672v864h552v-1536h-524v292h-16q-50 -147 -175 -229.5t-297 -82.5q-162 0 -282 74t-187 204t-67 298v980h552v-864q1 -114 58.5 -179t161.5 -65q103 0 164 65t60 179zM872 2140l284 -440h-416l-408 440h540z" />
<glyph unicode="&#xfa;" horiz-adv-x="1828" d="M1136 672v864h552v-1536h-524v292h-16q-50 -147 -175 -229.5t-297 -82.5q-162 0 -282 74t-187 204t-67 298v980h552v-864q1 -114 58.5 -179t161.5 -65q103 0 164 65t60 179zM672 1700l296 440h564l-420 -440h-440z" />
<glyph unicode="&#xfb;" horiz-adv-x="1828" d="M1136 672v864h552v-1536h-524v292h-16q-50 -147 -175 -229.5t-297 -82.5q-162 0 -282 74t-187 204t-67 298v980h552v-864q1 -114 58.5 -179t161.5 -65q103 0 164 65t60 179zM736 1700l204 160l196 -160h452v12l-480 396h-344l-484 -396v-12h456z" />
<glyph unicode="&#xfc;" horiz-adv-x="1828" d="M1136 672v864h552v-1536h-524v292h-16q-50 -147 -175 -229.5t-297 -82.5q-162 0 -282 74t-187 204t-67 298v980h552v-864q1 -114 58.5 -179t161.5 -65q103 0 164 65t60 179zM600 1692q-102 0 -173 68t-71 164t71 164t173 68q99 0 169.5 -68t70.5 -164t-70.5 -164 t-169.5 -68zM1236 1692q-102 0 -173 68t-71 164t71 164t173 68q99 0 169.5 -68t70.5 -164t-70.5 -164t-169.5 -68z" />
<glyph unicode="&#xfd;" horiz-adv-x="1704" d="M456 -600q-110 0 -186.5 20.5t-125.5 39.5l120 412q102 -36 174 -31.5t106 63.5l12 28l-540 1604h576l248 -1064h16l252 1064h580l-560 -1664q-43 -126 -129 -233.5t-220.5 -173t-322.5 -65.5zM592 1700l296 440h564l-420 -440h-440z" />
<glyph unicode="&#xfe;" horiz-adv-x="1732" d="M140 2048h552v-644h16q40 93 134 122.5t198 29.5q149 0 286.5 -81t226 -255t87.5 -452q1 -268 -83.5 -442.5t-222 -260t-298.5 -85.5q-95 0 -190 24t-138 120h-16v-700h-552v2624zM1124 768q1 364 -264 364q-97 0 -148 -51t-69.5 -134t-18.5 -179q0 -92 17 -175.5 t67 -136t152 -52.5q265 0 264 364z" />
<glyph unicode="&#xff;" horiz-adv-x="1704" d="M456 -600q-110 0 -186.5 20.5t-125.5 39.5l120 412q102 -36 174 -31.5t106 63.5l12 28l-540 1604h576l248 -1064h16l252 1064h580l-560 -1664q-43 -126 -129 -233.5t-220.5 -173t-322.5 -65.5zM520 1692q-102 0 -173 68t-71 164t71 164t173 68q99 0 169.5 -68t70.5 -164 t-70.5 -164t-169.5 -68zM1156 1692q-102 0 -173 68t-71 164t71 164t173 68q99 0 169.5 -68t70.5 -164t-70.5 -164t-169.5 -68z" />
<glyph unicode="&#x131;" horiz-adv-x="832" d="M140 0v1536h552v-1536h-552z" />
<glyph unicode="&#x152;" horiz-adv-x="2988" d="M1072 0q-264 0 -479.5 110t-342.5 336t-126 574q-1 350 126 578t342.5 339t479.5 111h1772v-448h-920v-352h844v-448h-844v-352h916v-448h-1768zM1368 448v1152h-296q-111 0 -197.5 -51.5t-136.5 -178t-50 -350.5q0 -226 50 -350t136.5 -173t197.5 -49h296z" />
<glyph unicode="&#x153;" horiz-adv-x="2724" d="M888 -28q-250 0 -428 99.5t-273 278t-95 414.5t95 414.5t273 278t428 99.5t428 -99.5t273 -278t95 -414.5t-95 -414.5t-273 -278t-428 -99.5zM892 380q105 0 166.5 103.5t61.5 284.5t-61.5 284.5t-166.5 103.5q-111 0 -173.5 -103.5t-62.5 -284.5t62.5 -284.5 t173.5 -103.5zM1948 -28q-369 0 -580.5 209.5t-211.5 582.5q0 238 96 416t271 277t413 99q232 0 403.5 -95t266 -271.5t94.5 -421.5v-128h-1000v-24q0 -111 68.5 -183.5t191.5 -72.5q85 0 148.5 35.5t87.5 100.5h504q-39 -240 -235.5 -382t-516.5 -142zM1700 944h492 q-2 99 -71.5 161.5t-172.5 62.5q-101 0 -173.5 -62t-74.5 -162z" />
<glyph unicode="&#x178;" horiz-adv-x="2152" d="M48 2048h620l400 -832h16l400 832h620l-752 -1404v-644h-552v644zM760 2104q-102 0 -173 68t-71 164t71 164t173 68q99 0 169.5 -68t70.5 -164t-70.5 -164t-169.5 -68zM1396 2104q-102 0 -173 68t-71 164t71 164t173 68q99 0 169.5 -68t70.5 -164t-70.5 -164t-169.5 -68z " />
<glyph unicode="&#x189;" horiz-adv-x="2064" d="M-132 948v296h1076v-296h-1076zM920 0h-788v2048h780q316 0 546.5 -122.5t356 -352t125.5 -549.5t-125 -549.5t-354 -352t-541 -122.5zM688 472h212q152 0 259.5 49t164 169t56.5 334t-57.5 334t-168 169t-270.5 49h-196v-1104z" />
<glyph unicode="&#x237;" horiz-adv-x="832" d="M140 1536h552v-1580q0 -202 -85 -319.5t-239.5 -165t-363.5 -39.5q-21 1 -44 1t-56 3v408q35 -4 64 -4q99 0 135.5 30.5t36.5 97.5v1568z" />
<glyph unicode="&#x2c6;" horiz-adv-x="1772" d="M704 1792l204 160l196 -160h452v12l-480 396h-344l-484 -396v-12h456z" />
<glyph unicode="&#x2c7;" horiz-adv-x="1772" d="M688 2048l204 -160l196 160h452v-12l-480 -396h-344l-484 396v12h456z" />
<glyph unicode="&#x2d9;" horiz-adv-x="920" d="M460 1672q-108 0 -190 72t-82 180t82 180t190 72t190 -72t82 -180t-82 -180t-190 -72z" />
<glyph unicode="&#x2da;" horiz-adv-x="1220" d="M304 1680q0 99 85 175.5t223 76.5q135 0 219.5 -76.5t84.5 -175.5q0 -102 -84.5 -173t-219.5 -71q-138 0 -223 71t-85 173zM472 1680q0 -54 37 -91t103 -37q63 0 99.5 37t36.5 91t-38 89t-98 35q-63 0 -101.5 -35t-38.5 -89z" />
<glyph unicode="&#x2dc;" horiz-adv-x="1420" d="M428 1724l-284 16q0 96 43.5 185t119.5 146t173 57q75 0 141.5 -27t131 -54t131.5 -27q40 0 74.5 24.5t33.5 87.5l284 -16q1 -96 -42 -185t-119 -146t-175 -57q-87 0 -150.5 28t-122.5 56t-131 28q-44 0 -75.5 -26.5t-32.5 -89.5z" />
<glyph unicode="&#x2000;" horiz-adv-x="1354" />
<glyph unicode="&#x2001;" horiz-adv-x="2708" />
<glyph unicode="&#x2002;" horiz-adv-x="1354" />
<glyph unicode="&#x2003;" horiz-adv-x="2708" />
<glyph unicode="&#x2004;" horiz-adv-x="902" />
<glyph unicode="&#x2005;" horiz-adv-x="677" />
<glyph unicode="&#x2006;" horiz-adv-x="451" />
<glyph unicode="&#x2007;" horiz-adv-x="451" />
<glyph unicode="&#x2008;" horiz-adv-x="338" />
<glyph unicode="&#x2009;" horiz-adv-x="541" />
<glyph unicode="&#x200a;" horiz-adv-x="150" />
<glyph unicode="&#x2010;" horiz-adv-x="1404" d="M1260 1044v-372h-1116v372h1116z" />
<glyph unicode="&#x2011;" horiz-adv-x="1404" d="M1260 1044v-372h-1116v372h1116z" />
<glyph unicode="&#x2012;" horiz-adv-x="1404" d="M1260 1044v-372h-1116v372h1116z" />
<glyph unicode="&#x2013;" horiz-adv-x="1408" d="M1408 1040v-360h-1408v360h1408z" />
<glyph unicode="&#x2014;" horiz-adv-x="2816" d="M2816 1040v-360h-2816v360h2816z" />
<glyph unicode="&#x2018;" horiz-adv-x="764" d="M168 1408v240q0 98 40 197t101 183t123 136l228 -116q-52 -87 -80.5 -182t-27.5 -218v-240h-384z" />
<glyph unicode="&#x2019;" horiz-adv-x="688" d="M576 2048v-240q0 -98 -39.5 -195.5t-100 -181t-124.5 -139.5l-228 116q42 72 75 167t33 233v240h384z" />
<glyph unicode="&#x201a;" horiz-adv-x="744" d="M588 256v-240q0 -98 -39.5 -195.5t-100 -181t-124.5 -139.5l-228 116q42 72 75 167t33 233v240h384z" />
<glyph unicode="&#x201c;" horiz-adv-x="1296" d="M184 1408v240q0 98 40 197t101 183t123 136l228 -116q-52 -87 -80.5 -182t-27.5 -218v-240h-384zM684 1408v240q0 98 40 197t101 183t123 136l228 -116q-52 -87 -80.5 -182t-27.5 -218v-240h-384z" />
<glyph unicode="&#x201d;" horiz-adv-x="1200" d="M584 2048v-240q0 -98 -39.5 -195.5t-100 -181t-124.5 -139.5l-228 116q42 72 75 167t33 233v240h384zM1080 2048v-240q0 -98 -39.5 -195.5t-100 -181t-124.5 -139.5l-228 116q42 72 75 167t33 233v240h384z" />
<glyph unicode="&#x201e;" horiz-adv-x="1252" d="M596 256v-240q0 -98 -39.5 -195.5t-100 -181t-124.5 -139.5l-228 116q42 72 75 167t33 233v240h384zM1092 256v-240q0 -98 -39.5 -195.5t-100 -181t-124.5 -139.5l-228 116q42 72 75 167t33 233v240h384z" />
<glyph unicode="&#x2022;" horiz-adv-x="1256" d="M628 420q-114 0 -207.5 55.5t-149 149t-55.5 207.5t55.5 207.5t149 149t207.5 55.5t207.5 -55.5t149 -149t55.5 -207.5t-55.5 -207.5t-149 -149t-207.5 -55.5z" />
<glyph unicode="&#x2026;" horiz-adv-x="2208" d="M456 -32q-115 0 -198 81.5t-82 198.5q-1 114 82 195t198 81q113 0 198 -81t86 -195q-1 -117 -86 -198.5t-198 -81.5zM1120 -32q-115 0 -198 81.5t-82 198.5q-1 114 82 195t198 81q113 0 198 -81t86 -195q-1 -117 -86 -198.5t-198 -81.5zM1784 -32q-115 0 -198 81.5 t-82 198.5q-1 114 82 195t198 81q113 0 198 -81t86 -195q-1 -117 -86 -198.5t-198 -81.5z" />
<glyph unicode="&#x202f;" horiz-adv-x="541" />
<glyph unicode="&#x2039;" horiz-adv-x="1168" d="M940 136h-308l-388 512v28l388 508h308l-324 -522z" />
<glyph unicode="&#x203a;" horiz-adv-x="1168" d="M244 136l314 522l-314 522h304l392 -512v-20l-392 -512h-304z" />
<glyph unicode="&#x2044;" horiz-adv-x="768" d="M-464 0l1408 2048h284l-1408 -2048h-284z" />
<glyph unicode="&#x205f;" horiz-adv-x="677" />
<glyph unicode="&#x20ac;" horiz-adv-x="1972" d="M1552 1356l-104 -232h-529q-3 -49 -3 -104q0 -51 2 -96h430l-120 -240h-269q41 -123 122.5 -173.5t198.5 -50.5q88 0 155.5 23t113 50t67.5 39l204 -432q-222 -168 -540 -168q-334 0 -572 183.5t-319 528.5h-301l88 240h179q-3 47 -3 96q0 53 3 104h-267l88 232h212 q81 347 319.5 533.5t572.5 186.5q162 0 298 -43.5t250 -124.5l-204 -432q-24 8 -70.5 35.5t-115 52t-158.5 24.5q-118 0 -199 -53.5t-122 -178.5h593z" />
<glyph unicode="&#x2122;" horiz-adv-x="1972" d="M1564 1252v436l-132 -436h-124l-132 440v-440h-228v752h280l140 -472l168 472h252v-752h-224zM860 2004v-176h-168v-568h-260v568h-188v176h616z" />
<glyph unicode="&#x25fc;" horiz-adv-x="1535" d="M0 1535h1535v-1535h-1535v1535z" />
<glyph horiz-adv-x="1064" d="M992 260v-260h-912v224l336 272q9 7 18 14.5t18 14.5q80 64 130.5 113t49.5 102q1 39 -29.5 67.5t-86.5 28.5t-89.5 -33.5t-34.5 -90.5h-336q1 179 120.5 283.5t323.5 104.5q205 0 337 -98.5t131 -253.5q1 -118 -78.5 -200.5t-217.5 -191.5q-9 -8 -19.5 -16t-20.5 -16 l-80 -64h440z" />
<glyph horiz-adv-x="1096" d="M60 168v268l404 652h456v-652h124v-268h-124v-168h-332v168h-528zM600 424v368h-16l-208 -352v-16h224z" />
<glyph horiz-adv-x="820" d="M320 1024v704h-16q-27 -16 -95.5 -38t-136.5 -22v272q85 0 160.5 29.5t130 70t77.5 72.5h212v-1088h-332z" />
<glyph horiz-adv-x="1092" d="M524 1008q-217 0 -344 96t-128 260h340q1 -40 43 -64t113 -24q65 0 103 26t37 70q1 48 -41 76t-115 28h-132v208h132q62 0 97.5 26t34.5 70q1 39 -32.5 65.5t-99.5 26.5q-55 0 -87 -18t-33 -42h-336q1 146 122 231t326 85q220 0 348.5 -86t127.5 -230q1 -94 -64 -154 t-176 -70v-16q122 -15 193.5 -80.5t70.5 -163.5q1 -148 -134 -234t-366 -86z" />
<glyph horiz-adv-x="1296" d="M344 2080q-102 0 -173 68t-71 164t71 164t173 68q99 0 169.5 -68t70.5 -164t-70.5 -164t-169.5 -68zM980 2080q-102 0 -173 68t-71 164t71 164t173 68q99 0 169.5 -68t70.5 -164t-70.5 -164t-169.5 -68z" />
<glyph horiz-adv-x="1420" d="M444 2100l-284 16q0 96 43.5 185t119.5 146t173 57q75 0 141.5 -27t131 -54t131.5 -27q40 0 74.5 24.5t33.5 87.5l284 -16q1 -96 -42 -185t-119 -146t-175 -57q-87 0 -150.5 28t-122.5 56t-131 28q-44 0 -75.5 -26.5t-32.5 -89.5z" />
</font>
</defs>
</svg>
